<svg xmlns="http://www.w3.org/2000/svg" xmlns:xlink="http://www.w3.org/1999/xlink" xmlns:inkscape="http://www.inkscape.org/namespaces/inkscape" version="1.1" viewBox="0 0 372.917 195.034">
<defs>
<clipPath id="clip_1">
<path transform="matrix(1,0,0,-1,0,195.034)" d="M0 195.034H372.917V0H0Z"/>
</clipPath>
</defs>
<g>
<g inkscape:groupmode="layer" inkscape:label="Merch">
</g>
<g inkscape:groupmode="layer" inkscape:label="Working Layer">
<g clip-path="url(#clip_1)">
<path transform="matrix(1,0,0,-1,356.0038,37.6938)" d="M0 0C.398-.531 .806-1.113 1.236-1.676 1.236-1.677 1.237-1.678 1.238-1.678 1.136-1.829 1.103-2.018 1.211-2.204 1.404-2.525 1.617-2.842 1.779-3.182 2.043-3.908 1.628-5.042 2.575-5.374 3.528-5.667 4.227-4.63 4.334-3.797 4.614-3.336 5.28-3.172 5.57-2.7 5.627-2.602 5.65-2.499 5.649-2.399 5.649-2.398 5.65-2.397 5.65-2.397V-2.395-2.394C6.087-1.697 4.778-.447 4.389 .122 3.787 1.044 3.072 1.875 2.323 2.682 1.414 3.733 .647 4.804-.4 5.75-.683 5.997-1.022 6.295-1.407 6.36-2.936 6.535-3.08 4.578-2.478 3.582-1.933 2.201-.932 1.124 0 0" fill="currentColor"/>
<path transform="matrix(1,0,0,-1,372.3647,54.233995)" d="M0 0C-.592 .892-.843 2.45-2.118 2.546-2.442 3.682-3.943 2.606-4.637 2.401-7.354 1.171-5.353-1.371-3.733-2.568-2.999-3.077-2.465-3.855-1.615-4.186 .748-4.75 .998-1.429 0 0" fill="currentColor"/>
<path transform="matrix(1,0,0,-1,369.0865,62.770998)" d="M0 0C-.513 .399-1.276 .177-1.878 .142-4.109-.411-3.137-2.418-1.23-2.466-.319-2.521 .929-2.412 1.382-1.497 1.754-.606 .747-.068 0 0" fill="currentColor"/>
<path transform="matrix(1,0,0,-1,358.4491,51.959596)" d="M0 0C.924-.528 2.133 .299 1.516 1.321 1.18 1.914 .655 2.36 .117 2.772 .043 3.149-.461 3.332-.832 3.42-1.033 3.482-1.256 3.46-1.439 3.365-1.959 3.454-2.561 2.989-2.188 2.41-1.5 1.585-.932 .567 0 0" fill="currentColor"/>
<path transform="matrix(1,0,0,-1,333.5435,13.563202)" d="M0 0C3.329-.39 4.134 2.658 5.159 5.138 5.603 5.851 6.236 6.418 6.668 7.141 7.245 8.116 8.653 11.257 7.228 11.914 6.861 12.075 6.421 11.913 6.183 11.612 4.902 10.104 4.144 8.139 2.606 6.854 2.079 6.39 1.346 6.461 .732 6.212-.378 5.744-.392 4.469 .363 3.664 1.073 2.78 .183 2.029-.448 1.459-.779 1.991-1.015 2.883-1.829 2.551-2.559 2.183-1.909 1.424-1.675 .936-1.372 .297-.651 .085 0 0" fill="currentColor"/>
<path transform="matrix(1,0,0,-1,283.3658,75.9133)" d="M0 0C-.452 .846-1.366 1.292-2.025 1.955-2.926 2.924-4.046 3.671-4.845 4.733-5.582 5.773-5.928 7.044-6.124 8.293-6.374 9.437-7.103 10.531-8.269 10.876-8.827 11.04-9.571 10.85-9.76 10.245-10.006 9.29-9.194 8.483-8.791 7.689-8.434 6.983-8.112 6.255-7.851 5.508-7.52 4.465-7.285 3.352-6.602 2.468-5.303 .825-3.335-.137-1.466-.986-.563-1.45 .37-1.123 0 0" fill="currentColor"/>
<path transform="matrix(1,0,0,-1,340.5722,17.463089)" d="M0 0C-.189 .368-.36 .858-.75 1.053-.817 1.078-.88 1.084-.941 1.087-1.451 1.462-2.105 1.61-2.593 1.145-3.22 .418-2.478-.424-2.092-1.068-1.804-1.644-1.895-2.222-2.215-2.755-2.586-3.665-1.878-4.683-.907-4.703 .036-4.911 .953-4.504 1.892-4.648V-4.643C2.123-4.63 2.321-4.497 2.453-4.313 3.005-4.763 3.56-5.208 4.118-5.651 6.671-7.892 8.901-10.424 11.295-12.846 11.561-13.136 11.986-13.112 12.249-12.831 12.489-12.574 12.564-12.106 12.31-11.829 11.528-11.005 10.759-10.169 10.05-9.282 8.822-7.908 7.569-6.557 6.248-5.273 5.004-4.12 3.668-3.075 2.36-1.995 2.197-1.687 1.934-1.409 1.746-1.132 1.277-.669 .79 .431 0 0" fill="currentColor"/>
<path transform="matrix(1,0,0,-1,171.7377,60.87979)" d="M0 0C.001 .014 .002 .028 .003 .041 .011 .039 .02 .039 .028 .036 .02 .023 .008 .014 0 0M-6.373-2.134C-6.268-2.556-6.608-2.922-6.761-3.29-7.358-4.401-6.863-5.524-6.005-6.32-4.872-7.628-3.439-8.602-2.224-9.821-1.3-10.429-.631-11.262 .005-12.15 .915-12.962 1.515-13.993 2.232-14.96 3.056-15.843 3.792-16.919 4.905-17.45 7.183-17.994 6.344-14.778 6.425-13.491 6.431-13.117 6.363-12.661 6.402-12.249 6.689-12.051 6.841-11.741 6.935-11.39 8.241-10.923 9.212-9.951 8.959-8.444 8.904-8.133 8.808-7.823 8.749-7.509 8.79-7.297 8.832-7.098 8.883-6.926 11.803-6.927 13.34-9.849 15.59-11.306 16.133-11.762 17.133-11.616 17.277-10.848 17.372-10.247 16.955-9.741 16.587-9.312 15.544-7.986 13.868-7.298 13.125-5.727 12.886-5.185 12.493-4.438 12.94-3.911 13.465-3.564 14.023-3.264 14.634-3.111 15.288-2.867 15.616-1.955 15.085-1.432 14.664-1.056 14.126-.847 13.641-.566 13.11 .268 13.491 1.369 13.587 2.286 13.72 3.547 14.468 5.076 13.308 6.068 12.936 6.47 12.245 6.479 11.99 6.977 11.747 7.506 11.599 8.224 11.155 8.647 9.866 9.605 8.085 9.18 6.581 9.233 3.695 8.871 .752 9.462-2.169 9.463-4.816 9.6-3.794 8.523-3.628 6.756-3.62 5.414-4.448 4.26-5.194 3.209-6.895 1.212-7.398 .406-6.373-2.134" fill="currentColor"/>
<path transform="matrix(1,0,0,-1,275.0757,88.2817)" d="M0 0C-.019 .102-.044 .202-.073 .302-.065 .292-.057 .281-.049 .271-.016 .239 .025 .22 .061 .195 .04 .131 .012 .07 0 0M-1.521 6.209C-1.529 6.223-1.538 6.236-1.546 6.25-1.535 6.239-1.523 6.228-1.511 6.216-1.514 6.214-1.518 6.212-1.521 6.209M-11.182 15.015C-10.632 13.95-9.745 13.127-9.074 12.144-7.903 10.314-6.659 8.555-5.51 6.677-4.359 4.422-2.71 2.499-1.804 .11-1.419-1.006-1.725-2.543-.681-3.325-.255-3.586 .264-3.505 .671-3.247 1.618-2.589 1.491-1.28 1.684-.272 2.486-.288 3.287-.775 4.08-.363 5.708 .263 5.432 2.433 4.4 3.494 3.437 4.726 1.923 5.31 .759 6.312-.444 7.715-2.04 8.551-3.554 9.551-4.385 10.391-5.156 11.289-5.994 12.123-6.679 12.666-7.209 13.331-7.69 14.057-7.988 14.487-8.092 14.931-8.388 15.413-8.481 15.601-8.628 15.749-8.796 15.857-8.921 16.258-9.539 16.383-9.932 16.502-10.177 16.576-10.458 16.504-10.65 16.336-10.861 16.266-11.083 16.147-11.259 16.122-11.412 16.071-11.517 15.904-11.453 15.748-11.382 15.631-11.286 15.584-11.179 15.574-11.27 15.403-11.29 15.201-11.182 15.015" fill="currentColor"/>
<path transform="matrix(1,0,0,-1,290.1899,129.63559)" d="M0 0C-1.721 .048-2.934-1.305-4.24-2.195-5.131-2.595-6.12-2.416-7.043-2.688-7.576-2.714-8.907-3.522-9.175-2.891-9.476-1.867-8.365-.965-8.712 .09-8.87 .819-9.526 1.372-10.285 1.278-11.719 1.111-11.784-.552-11.968-1.666-12.055-2.085-12.437-2.241-12.832-2.225-13.459-2.19-14.088-2.18-14.687-2.401-15.353-2.561-15.858-2.997-16.194-3.555-15.966-2.943-15.755-2.318-15.419-1.942-14.574-1.193-13.372-.639-12.947 .476-12.836 1.617-14.05 1.842-15.265 1.842-16.013 1.842-16.762 1.756-17.2 1.748-16.326 2.485-15.161 2.918-14.479 3.867-13.751 4.818-14.58 5.715-15.621 5.686-17.955 5.681-20.124 4.601-22.142 3.524-22.49 3.327-23.041 3.08-23.488 3.032-24.237 2.885-25.714 2.871-25.827 1.909-26.525 1.599-27.392 1.403-27.767 .665-27.945 .355-28.073-.101-27.807-.406-26.706-1.327-25.195-1.107-23.885-1.61-22.703-2.01-21.463-2.735-20.461-3.515-19.798-4.044-19.225-4.701-18.489-5.136-17.458-5.588-16.929-5.13-16.555-4.411-16.627-4.676-16.668-4.948-16.68-5.217-16.804-5.943-16.747-6.701-16.338-7.333-15.898-7.988-15.097-8.354-14.327-8.425-13.847-8.49-13.369-8.347-12.893-8.461-11.754-8.939-10.557-9.179-9.339-9.371-7.415-9.82-5.569-10.5-3.72-11.174-1.959-11.762 .371-10.591-.16-8.51-.48-6.502-2.619-5.472-.371-3.536 .344-2.622 2.838-2.071 2.228-.606 1.75 .099 .748-.03 0 0" fill="currentColor"/>
<path transform="matrix(1,0,0,-1,319.7816,15.076599)" d="M0 0C-1.103-.624-2.014-1.524-2.971-2.343-3.722-2.357-4.579-1.855-5.314-2.288-6.803-3.007-5.169-5.581-7.031-5.579-7.39-5.361-7.491-4.789-7.636-4.403-7.553-3.995-7.397-3.609-7.373-3.188-7.365-2.486-7.357-1.749-6.963-1.138-6.359-1.331-5.787-1.075-5.253-.827-4.476-.431-3.661-.113-2.917 .349-1.82 .886 .585 1.883 1.572 .844 1.086 .497 .512 .301 0 0M-50.961-39.827C-51.608-39.722-51.705-39.004-51.882-38.484-52.347-37.266-53.174-36.162-54.338-35.531-53.573-35.565-53.033-35.608-52.26-35.55-51.622-35.532-51.004-35.34-50.37-35.314-49.941-35.405-49.511-35.55-49.128-35.767-50.262-37.209-49.114-38.71-50.961-39.827M-56.662-43.205C-57.322-43.561-58.171-43.411-58.899-43.581-59.212-43.589-59.65-43.683-59.842-43.373-59.777-42.737-59.731-42.099-59.662-41.385-59.584-41.036-59.573-40.652-59.399-40.336-58.646-39.94-57.634-40.049-56.912-40.474-57.306-40.977-56.702-41.517-56.631-42.034-56.566-42.391-56.339-42.907-56.662-43.205M-62.084-85.862C-61.418-84.843-60.448-84.038-59.453-83.352-58.336-83.25-58.574-83.652-59.041-84.37-59.285-84.902-59.512-85.535-59.31-86.115-58.29-88.005-55.95-86.091-54.365-86.591-53.473-87.527-53.773-89.068-54.372-90.093-55.598-91.558-57.562-92.28-59.43-92.424-63.155-92.241-63.691-88.622-62.084-85.862M-51.254-87.291C-51.001-87.356-50.719-87.314-50.496-87.175-49.437-86.572-48.461-85.772-47.298-85.38-46.339-85.192-42.538-84.677-42.143-85.692-41.849-86.196-42.103-86.42-42.569-86.618-43.431-86.914-44.297-87.213-45.165-87.494-46.027-87.695-46.921-87.887-47.581-88.528-49.166-90.204-50.124-91.355-52.627-91.347-52.655-91.347-52.682-91.347-52.71-91.345-52.717-91.34-52.722-91.336-52.729-91.33-52.733-91.326-52.739-91.322-52.743-91.318-52.635-89.87-51.995-88.517-51.254-87.291M-30.771-83.944C-31.044-84.348-31.475-84.61-31.86-84.897-31.508-84.568-31.15-84.241-30.771-83.944M-68.756-128.799C-69.512-127.609-69.25-126.111-69.396-124.769-68.702-124.499-68.888-123.476-68.31-123.098-67.497-124.629-67.523-127.495-68.756-128.799M-72.273-60.137C-73.448-59.752-75.168-59.033-76.262-59.89-77.141-60.74-76.392-61.988-75.935-62.866-75.239-64.208-73.878-65.376-74.264-67.032-74.446-67.729-74.532-68.516-74.993-69.095-75.752-69.878-76.331-70.81-77.067-71.612-78.12-72.798-79.756-70.755-79.673-69.655-77.297-70.451-76.287-67.555-76.947-65.719-77.405-64.64-78.218-63.776-78.968-62.898-79.44-62.407-79.873-61.86-79.853-61.141-79.582-59.022-79.226-56.777-80.343-54.821-81.47-51.749-82.783-52.217-84.777-50.255-85.405-49.426-85.821-48.432-86.305-47.487-86.315-47.427-86.326-47.367-86.338-47.309-86.079-47.235-85.818-47.12-85.586-47.053-84.751-46.908-83.87-46.754-83.25-46.121-82.829-45.771-82.651-45.112-83.037-44.67-83.933-43.724-85.357-43.81-86.498-43.4-86.428-43.089-86.05-43.014-85.782-42.947-85.14-42.9-84.458-42.752-84.023-42.234-83.899-42.105-83.776-41.963-83.693-41.815H-83.692C-83.319-41.794-82.966-41.844-82.724-42.138-82.667-42.426-82.779-42.857-82.778-43.213-82.771-44.236-81.74-44.341-80.942-44.314-80.281-44.395-79.623-44.599-79.07-44.979-79.473-45.251-79.911-45.461-80.307-45.741-81.073-46.273-80.845-47.282-80.022-47.601-79.044-47.889-77.989-47.915-77.069-48.403-76.277-48.773-75.523-49.21-74.742-49.593-74.427-49.996-74.209-50.467-73.885-50.868-73.635-51.266-73.359-51.659-73.196-52.103-73.015-52.646-73.081-53.229-72.979-53.787-72.63-55.112-71.59-56.081-70.618-56.983-69.59-57.843-68.329-58.975-68.375-60.456-68.712-60.879-69.044-61.106-69.598-60.979-70.546-60.913-71.43-60.549-72.273-60.137M-91.795-34.223C-93.616-35.041-95.482-35.743-97.2-36.773-98.64-37.639-100.362-37.825-101.999-38.052-104.721-38.435-107.458-38.159-110.173-37.8-111.855-37.694-113.557-37.731-115.208-37.349-116.136-37.114-117.154-37.102-118.017-36.671-117.599-36.572-117.172-36.496-116.746-36.421-116.173-36.49-115.597-36.537-115.024-36.581-113.278-36.744-111.536-36.496-109.785-36.483-106.805-36.376-103.7-36.008-100.785-35.379-98.018-34.625-95.419-33.354-92.649-32.59-91.365-32.175-90.126-31.64-88.903-31.078-87.699-30.646-86.416-30.493-85.168-30.229-82.807-29.786-80.341-29.552-77.996-30.18-77.877-30.554-77.358-30.809-77.115-31.12-78.105-31.473-79.113-31.809-80.137-32.061-82.28-32.449-84.48-32.434-86.59-33.019-88.344-33.316-90.125-33.597-91.795-34.223M-120.41-33.685C-120.617-33.302-120.98-33.006-121.402-32.844-119.254-32.724-117.13-32.46-115.03-32.082-115.033-32.114-115.035-32.146-115.037-32.176-115.142-32.547-115.19-32.989-115.467-33.282-116.949-34.307-118.759-33.554-120.41-33.685M-106.6-79.89C-107.836-79.709-107.933-78.003-107.772-77.018-107.11-77.01-106.419-77.34-106.27-78.034-106.189-78.537-105.829-79.833-106.6-79.89M-125.021-81.82C-125.07-81.876-125.128-82.023-125.218-82.02-126.06-81.955-125.986-80.804-126.347-80.236-126.93-78.97-127.499-77.657-128.465-76.623-128.381-76.443-128.306-76.249-128.207-76.074-127.722-76.77-127.016-77.224-126.284-77.623-125.58-78.157-124.805-78.845-124.612-79.739-124.536-80.445-124.691-81.194-125.021-81.82M-126.333-64.761C-126.825-64.832-127.263-65.097-127.735-65.226-127.986-65.222-128.182-65.027-128.326-64.839-127.707-64.52-126.987-64.636-126.333-64.761M-144.693-134.201C-144.392-134.901-143.84-135.449-143.224-135.881-142.298-136.687-141.127-136.918-139.962-137.153-139.428-137.505-138.633-137.34-138.529-136.641-135.656-139.306-131.026-139.45-128.772-142.875-128.233-144.141-128.119-145.546-127.996-146.905-130.14-146.525-131.947-145.172-133.947-144.409-135.357-143.956-136.854-144.192-138.287-143.902-140.8-142.813-144.254-145.407-146.088-142.618-144.943-142.089-143.593-142.44-142.385-142.172-141.217-141.914-140.811-140.546-141.641-139.686-142.073-139.25-142.656-138.929-143.246-138.758-143.92-138.522-144.722-138.642-145.314-138.199-145.339-137.795-145.07-137.441-145.085-137.041-145.105-136.414-145.43-135.87-145.914-135.486-146.607-134.918-147.592-134.713-148.146-133.976-148.891-132.694-149.562-130.557-148.484-129.291-147.757-129.532-147.275-130.181-146.728-130.685-146.344-131.073-145.937-131.44-145.61-131.879-145.211-132.612-144.915-133.388-144.693-134.201M-148.596-102.598C-148.524-102.692-148.457-102.786-148.396-102.881-147.493-104.032-147.265-105.521-147.25-106.945-147.203-108.624-147.109-110.176-147.312-111.899-147.327-112.013-147.342-112.128-147.358-112.242-149.394-108.892-150.892-106.863-148.596-102.598M-145.911-103.917C-145.911-103.925-145.912-103.933-145.914-103.941-145.916-103.936-145.918-103.93-145.919-103.925-145.916-103.922-145.914-103.921-145.911-103.917M-109.386-173.675V-173.673C-108.507-173.262-107.459-173.976-106.722-174.431-106.836-175.409-105.884-176.436-106.388-177.396-107.227-177.087-108.385-177.01-108.902-176.206-109.071-175.362-109.504-174.558-109.386-173.675M-102.21-176.12C-101.503-176.142-100.954-176.662-100.482-177.138-100.483-177.14-100.484-177.141-100.486-177.142-100.761-177.154-101.034-177.151-101.307-177.154-102.072-177.187-103.095-177.162-103.442-176.347-103.214-175.98-102.588-176.137-102.21-176.12M-159.831-71.475C-159.84-71.455-159.852-71.433-159.862-71.411-159.847-71.442-159.829-71.474-159.81-71.506-159.817-71.496-159.824-71.485-159.831-71.475M-170.452-60.5C-170.784-62.637-170.828-65.189-172.638-66.673-172.819-64.242-171.734-61.846-172.014-59.397-172.021-58.111-173.156-56.341-172.291-55.225-171.636-54.687-170.854-54.313-170.158-53.824-169.733-55.991-170.092-58.312-170.452-60.5M-186.888-58.529C-187.238-58.336-187.463-57.973-187.619-57.615-187.96-56.551-188.276-55.478-188.695-54.437-188.87-53.872-189.092-53.304-189.537-52.892-190.194-52.209-191.396-52.057-191.729-51.082-191.152-50.901-190.541-50.721-189.933-50.712-189.397-50.925-188.985-51.535-188.46-51.474-188.195-51.577-187.926-51.666-187.658-51.757-186.972-52.918-186.465-54.157-186.041-55.442-185.9-56.038-185.888-56.658-185.752-57.253-185.619-57.735-185.272-58.111-185.067-58.557-185.653-58.689-186.302-58.646-186.888-58.529M-221.818-62.059C-222.059-62.074-222.231-61.87-222.414-61.743-222.674-61.536-222.937-61.327-223.173-61.091-223.811-60.491-223.49-59.615-223.165-58.939-222.892-58.389-222.175-58.059-221.56-58.064-221.257-58.597-220.567-58.87-220.36-59.454-220.257-60.491-220.603-61.919-221.818-62.059M-226.452-69.035C-227.294-69.742-228.552-69.666-229.594-69.768L-229.593-69.769C-229.605-69.769-229.67-69.762-229.735-69.753-230.481-69.528-230.867-68.557-231.448-68.031-232.204-67.228-232.826-66.898-232.42-65.68-232.22-65.028-232.162-64.319-232.413-63.671-232.531-63.333-232.713-63.014-232.764-62.657-232.046-62.648-231.328-62.647-230.617-62.746-230.258-62.804-229.746-62.691-229.6-63.119-229.418-63.703-229.453-64.345-229.13-64.886-228.937-65.241-228.662-65.629-228.287-65.804-227.844-66.036-227.33-65.989-226.875-66.178-225.852-66.699-225.589-68.246-226.452-69.035M-235.568-65.36C-235.902-66.778-236.769-68.224-238.3-68.545-238.467-67.676-238.728-66.823-238.75-65.928-238.685-65.382-238.529-64.585-239.171-64.326-238.265-63.895-236.902-63.267-236.066-64.109-235.786-64.457-235.441-64.883-235.568-65.36M-240.465-68.251C-240.698-68.723-241.047-69.217-241.512-69.479-241.645-69.417-241.743-69.311-241.822-69.189-241.885-69.102-241.972-68.989-242.049-68.861-241.777-68.503-241.82-67.93-242.188-67.642-242.13-67.114-241.996-66.584-241.562-66.256-241.17-65.855-240.64-65.703-240.095-65.669-240.103-66.297-240.041-66.925-239.912-67.542-240.215-67.614-240.434-67.921-240.465-68.251M-243.557-67.548C-244.354-67.738-245.125-67.451-245.933-67.4-245.923-67.378-245.915-67.356-245.909-67.332-245.232-67.243-244.532-67.41-243.861-67.234-243.738-67.2-243.619-67.157-243.504-67.106-243.531-67.251-243.547-67.399-243.557-67.548M-245.597-73.936C-246.162-74.315-246.771-74.721-247.465-74.78-248.042-74.783-248.844-74.883-249.21-74.337-249.595-73.389-249.58-72.327-250.044-71.398-250.167-71.071-250.264-70.687-249.972-70.421-249.503-69.909-248.989-69.449-248.501-68.956-248.709-69.555-248.404-70.284-247.803-70.513-247.204-70.785-246.663-71.175-246.179-71.62-245.796-72.264-245.382-73.186-245.597-73.936M-262.132-77.169C-262.585-76.316-263.403-75.751-264.124-75.137-264.143-75.12-264.163-75.102-264.182-75.086-263.889-74.878-263.78-74.417-263.998-74.093-264.065-73.992-264.145-73.905-264.236-73.826-263.495-73.931-262.76-74.076-262.031-74.264-261.217-74.442-260.394-74.615-259.646-74.994-259.211-75.3-257.786-75.759-257.79-76.363-258.527-77.721-261.076-75.961-262.132-77.169M-263.216-84.059C-264.877-84.327-267.531-82.103-268.271-80.721-268.266-80.743-268.262-80.766-268.256-80.789-268.253-80.802-268.25-80.815-268.249-80.829-268.257-80.793-268.266-80.757-268.271-80.721-268.309-80.535-268.322-80.34-268.331-80.151-267.479-80.713-266.479-81.056-265.478-81.233-264.547-81.413-263.166-81.584-262.876-82.648-262.843-83.106-262.469-84.073-263.216-84.059M-270.401-76.169C-270.234-75.918-270.207-75.552-270.445-75.177-269.834-74.873-269.134-75.063-268.474-75.068-267.934-75.09-267.393-75.102-266.877-75.276-266.406-75.417-265.978-75.635-265.575-75.896-264.671-76.618-263.874-77.557-263.126-78.386-263.046-78.878-263.219-79.369-263.771-79.616-264.213-79.61-264.614-79.343-265.021-79.191-265.3-79.068-265.633-79.213-265.717-79.507-265.725-79.55-265.731-79.59-265.732-79.629-266.274-79.499-266.802-79.346-267.279-79.1-268.544-78.386-269.301-77.076-270.401-76.169M-270.985-80.496C-271.235-80.645-271.548-80.726-271.837-80.731-272.929-80.508-273.817-79.719-274.662-79.031-275.683-78.214-276.211-77.078-275.623-75.823-273.883-75.842-271.913-76.528-271.105-78.178-270.746-78.874-270.296-79.861-270.985-80.496M-270.945-80.47C-270.94-80.465-270.936-80.461-270.93-80.456-270.93-80.457-270.927-80.457-270.925-80.456-270.932-80.463-270.938-80.467-270.945-80.47M-280.699-73.556C-281.873-73.614-283.108-74.359-283.076-75.66-283.05-76.389-282.894-77.109-282.953-77.847-283.703-77.354-284.588-77.144-285.357-76.688-285.969-76.241-286.547-75.703-287.314-75.538-288.058-75.206-288.887-75.558-288.583-76.459-288.432-76.807-288.102-77.01-287.807-77.223-286.886-77.906-285.855-78.425-284.958-79.14-284.329-79.713-283.555-80.457-282.629-80.21-282.377-80.813-282.76-81.647-282.877-82.277-283.641-82.64-284.483-82.257-285.191-81.93-286.454-81.363-287.588-80.541-288.541-79.535-289.914-78.417-291.131-77.129-292.171-75.693-292.99-74.289-293.536-72.747-294.307-71.319-294.656-70.603-294.787-69.787-295.223-69.115-295.535-68.623-295.938-68.209-296.335-67.787-296.783-67.392-298.052-65.18-298.944-64.693-298.466-64.674-297.99-64.661-297.519-64.667-297.46-64.729-297.392-64.783-297.316-64.824-296.972-65.039-296.516-64.99-296.13-64.941-296.13-64.94-296.13-64.94-296.132-64.939-296.115-64.934-296.098-64.93-296.083-64.926-296.053-65.071-295.996-65.226-295.909-65.391-295.393-66.123-294.642-66.652-294.073-67.344-293.315-68.271-292.146-68.281-291.823-66.997-291.674-66.653-291.65-66.078-291.196-66.015-290.378-66.024-289.421-66.257-288.942-66.978-288.586-67.553-288.424-68.194-288.274-68.839-288.417-68.946-288.507-69.123-288.513-69.325-288.554-69.704-288.47-70.14-288.626-70.491-291.152-71.909-288.562-73.849-286.904-74.478-285.427-74.771-285.642-72.882-285.658-71.943-284.222-71.649-282.903-72.598-281.493-72.752-279.572-72.81-277.649-72.857-275.759-73.249-275.073-73.335-274.506-73.804-273.807-73.8-273.233-73.654-273.171-73.182-273.318-72.707-273.027-72.82-272.736-72.933-272.444-73.045-272.4-73.104-272.355-73.156-272.308-73.2-272.428-73.473-272.487-73.789-272.474-74.152-272.449-74.394-272.386-74.629-272.302-74.858-273.225-74.354-274.322-74.274-275.355-74.238-276.02-72.752-279.371-73.411-280.699-73.556M-285.631-67.512C-284.715-67.9-283.708-68.053-282.728-68.191-282.184-68.233-281.636-68.161-281.094-68.204-281.098-68.484-280.949-68.781-280.619-68.91-280.598-68.92-280.579-68.93-280.558-68.941-281.23-68.974-281.898-69.142-282.539-69.345-283.275-69.537-284.063-69.457-284.814-69.572-285.394-69.609-286.005-69.617-286.552-69.409-286.737-68.343-287.022-67.288-287.556-66.339-286.897-66.707-286.315-67.188-285.631-67.512M-109.775-21.183C-109.798-21.343-109.811-21.505-109.813-21.666-110.219-21.847-110.702-21.843-111.122-21.712-112.045-21.263-112.999-20.72-114.065-20.856-114.339-20.896-114.614-20.941-114.886-20.995-114.105-20.361-113.395-19.646-112.628-18.993-111.683-19.21-110.753-19.481-109.867-19.914-109.853-20.134-109.718-20.298-109.613-20.479-109.693-20.707-109.744-20.947-109.775-21.183M45.234-49.212C45.132-49.206 45.031-49.203 44.929-49.202 44.808-48.858 44.617-48.53 44.431-48.251 44.129-47.812 43.286-47.175 44.104-46.796 44.853-46.469 45.705-46.593 46.504-46.573 47.3-46.622 48.084-46.473 48.864-46.32 49.05-46.377 49.266-46.339 49.42-46.208 49.725-46.108 49.856-45.715 49.79-45.424 49.732-45.167 49.544-44.973 49.307-44.924 49.213-44.801 49.115-44.684 49.034-44.574 48.741-44.18 48.459-43.746 48.191-43.291 48.001-42.847 47.631-42.57 47.204-42.373 46.786-42.092 46.487-41.66 46.284-41.205 46.007-40.102 46.03-38.936 45.936-37.806 45.816-36.977 45.66-36.454 46.371-35.852 46.502-35.678 46.579-35.475 46.698-35.295 47.3-35.053 48.044-35.21 48.666-35.006 50.157-34.39 48.905-32.956 48.262-32.181 47.221-30.863 46.62-29.248 45.53-27.971 44.677-26.98 43.275-27.576 42.204-27.713 41.7-27.638 41.264-27.158 40.73-27.304 40.403-27.415 40.236-27.685 40.212-28.022 40.3-28.857 40.803-29.633 41.234-30.341 41.526-30.791 41.907-31.172 42.255-31.58 42.284-31.774 42.334-31.972 42.341-32.161 42.395-32.772 42.458-33.387 42.475-34.001 41.482-33.145 40.887-31.984 40.013-31.012 39.773-30.446 39.607-29.768 39.073-29.398 38.12-28.819 36.681-28.685 36.707-30.184 36.761-31.12 37.574-31.731 38.114-32.419 38.666-33.171 38.903-34.15 39.755-34.653 40.248-34.985 40.763-35.235 41.282-35.565 41.421-35.787 41.57-36.003 41.644-36.186 41.188-36.682 41.351-37.437 41.398-38.047 41.508-38.942 41.557-39.843 41.677-40.735 41.708-40.993 41.748-41.278 41.92-41.484 41.739-41.555 41.548-41.609 41.365-41.677 40.621-41.294 39.751-41.232 38.936-41.09 38.601-39.882 38.354-38.557 37.461-37.625 36.95-37.128 36.307-36.806 35.68-36.482 34.774-35.948 33.893-35.366 33.021-34.778 31.691-34.04 30.558-33.01 29.26-32.227 28.605-31.863 27.9-31.657 27.232-31.319 27.303-31.094 27.235-30.831 26.942-30.62 26.726-30.439 26.405-30.34 26.283-30.071 26.15-29.607 26.071-29.013 26.352-28.573 26.727-28.418 27.149-28.391 27.548-28.324 28.917-28.186 30.165-28.813 31.473-29.075 32.673-29.368 33.798-28.484 33.428-27.217 33.051-25.722 31.642-24.881 30.706-23.756 29.715-22.874 29.215-21.608 28.421-20.563 27.96-19.989 27.322-19.058 26.505-19.631 26.142-19.898 26.111-20.382 26.401-20.713 27.37-21.706 27.931-22.997 28.778-24.112 29.594-24.957 30.428-25.783 31.251-26.619 31.473-26.904 31.691-27.207 31.755-27.569 31.06-27.423 30.379-27.188 29.685-27.021 29.6-26.824 29.404-26.659 29.09-26.619 28.839-26.577 28.581-26.561 28.337-26.484 28.062-26.309 27.902-25.99 27.71-25.729 27.147-24.62 26.289-23.708 25.686-22.628 25.272-21.88 24.499-21.456 23.886-20.894 23.44-19.946 23.709-18.774 23.106-17.823 22.483-16.591 21.077-16.119 20.338-14.98 20.023-14.654 19.903-14.232 19.944-13.785 20.301-13.547 20.76-13.47 21.179-13.424 21.767-13.524 22.296-13.826 22.873-13.965 23.41-14.066 23.959-14.139 24.507-14.127 26.14-14.139 26.321-12.472 24.888-11.86 23.484-11.053 21.847-11.258 20.316-11.443 20.591-10.638 20.338-9.32 19.354-9.175 18.825-8.695 18.198-8.646 17.552-8.759 17.421-8.439 17.262-8.129 17.163-7.888 16.626-6.72 15.836-5.463 14.845-4.581 14.074-3.859 13.246-3.199 12.483-2.464 11.561-1.731 10.573-1.041 9.911-.047 9.777 .261 9.704 .578 9.673 .9 9.691 1.32 9.713 1.738 9.734 2.158 9.865 2.993 10.13 3.837 10.243 4.636 10.58 6.725 10.912 8.834 10.872 10.957 10.862 12.127 10.678 13.301 10.885 14.465 10.927 14.768 10.717 15.017 10.42 15.068 10.151 15.114 9.791 14.964 9.749 14.661 9.745 14.638 9.742 14.614 9.738 14.591 9.708 14.571 9.679 14.551 9.651 14.527 8.082 13.387 6.435 12.131 5.913 10.162 5.58 9.317 5.592 8.356 5.113 7.572 4.037 5.609 3.132 9.092 .121 7.465-2.517 6.308-1.639 5.443-3.034 3.552-3.592 2.847-4.487 2.6-5.293 2.297-6.247 1.862-7.228 1.211-7.658 .221-8.354 .11-8.849-.599-9.225-1.353-9.393-.893-9.352-.335-9.139 .092-8.915 .602-8.421 .917-8.111 1.371-7.255 2.42-6.705 3.675-6.368 4.98-5.831 6.181-6.443 7.025-7.756 6.98-9.109 6.788-10.431 6.418-11.813 6.54-12.042 6.927-12.194 7.51-11.816 7.855-10.927 8.874-9.76 9.607-8.522 10.141-7.369 10.467-6.153 10.492-4.991 10.812-4.387 10.927-3.257 10.887-3.414 11.79-3.77 12.926-6.095 11.948-6.962 11.877-8.576 11.835-10.071 11.203-11.395 10.311-12.073 9.828-12.836 9.298-13.322 8.598-13.497 8.472-13.675 8.348-13.861 8.316-14.323 8.34-15.008 8.528-15.171 9-15.296 10.039-15.281 11.364-16.41 11.842-16.831 12.064-17.407 12.207-17.773 11.812-18.248 11.211-17.704 10.426-17.611 9.774-17.578 9.276-17.714 8.682-18.107 8.347-18.411 8.969-18.587 9.69-19.192 10.097-19.285 10.177-19.372 10.259-19.472 10.365-19.793 10.861-19.951 11.483-20.462 11.841-21.721 12.458-22.195 14.004-23.509 14.509-25.54 15.121-24.843 12.528-24.278 11.534-24.021 11.062-23.579 10.735-23.16 10.416-22.949 10.226-22.639 9.967-22.839 9.664-23.893 9.597-24.993 9.929-26.008 9.528-26.782 9.152-26.572 8.257-25.861 7.952-25.613 7.833-25.371 7.716-25.141 7.596-24.939 7.361-24.735 7.128-24.55 6.881-24.227 6.297-23.804 5.587-23.969 4.901-24.549 4.077-25.53 3.589-26.452 3.239-27.511 3.081-28.439 3.215-29.528 3.305-30.229 3.309-30.931 3.279-31.661 3.374-33.002 3.432-34.332 3.652-35.677 3.473-36.293 3.451-37.002 3.286-37.563 3.609-37.785 3.799-37.85 4.108-38.036 4.327-38.713 5.188-39.845 4.779-40.552 4.182-42.442 3.063-44.145 1.1-46.496 .942-47.481 .828-48.481 .899-49.455 .696-50.928 .446-52.201-.439-53.698-.545-55.097-.897-56.367-1.612-57.604-2.337-59.095-3.095-60.33-4.193-61.595-5.265-62.654-5.848-63.544-6.654-64.429-7.456-64.667-7.647-64.94-7.917-64.94-8.247-64.94-8.757-64.442-9.065-63.965-8.979-63.709-8.933-63.532-8.772-63.357-8.594-62.463-7.908-61.272-7.616-60.151-7.582-60.807-8.508-61.878-9.071-62.922-9.464-63.412-9.737-64.766-10.538-65.164-11.295-66.467-11.757-67.799-12.127-69.166-12.354-71.141-12.756-73.156-12.989-75.088-13.589-76.575-14.05-77.958-14.853-79.525-15.049-80.557-15.12-81.627-15.166-82.623-14.854-83.623-14.453-84.574-13.783-85.688-13.749-86.565-13.818-86.752-14.834-86.976-15.517-87.176-16.405-88.178-16.227-88.87-16.229-89.527-16.212-90.178-16.097-90.837-16.169-91.798-16.319-93.135-16.405-93.496-17.483-93.535-17.585-93.637-17.604-93.735-17.603-94.25-17.571-94.765-17.523-95.277-17.469-96.504-17.219-97.765-17.107-99.014-17.201-100.128-17.258-102.079-17.773-101.72-19.24-103.5-19.334-105.243-18.935-106.98-18.61-108.732-18.358-110.354-17.82-112.005-17.186-112.557-17.037-113.109-17.287-113.506-17.667-114.197-18.24-114.83-18.875-115.499-19.472-117.512-21.077-119.583-22.682-122.054-23.512-124.127-24.495-126.408-24.993-128.69-25.15-129.093-25.148-129.483-25.061-129.877-24.997-130.678-24.909-131.487-25.139-132.237-25.404-133.262-25.831-133.973-26.756-134.948-27.261-135.415-27.463-135.927-27.536-136.415-27.663-137.11-27.837-137.636-28.085-138.37-28.228-139.059-28.309-140.233-28.331-140.211-29.277-140.202-29.579-140.027-29.83-139.791-30.003-139.605-30.14-139.374-30.171-139.15-30.18-138.466-30.216-137.789-30.361-137.103-30.254-134.626-30.049-132.498-28.656-130.176-27.906-128.97-27.576-127.714-27.49-126.491-27.234-125.135-27.06-123.781-26.828-122.41-27.12-121.053-27.148-119.7-26.902-118.342-26.879-116.056-26.665-113.758-26.905-111.467-26.866-109.574-26.862-107.718-26.433-105.819-26.57H-105.84-105.927C-104.531-26.668-102.985-26.437-101.611-26.84-103.378-27.246-105.129-27.7-106.84-28.309-108.152-28.853-109.512-29.259-110.888-29.612-114.831-30.71-118.879-31.403-122.971-31.595-126.067-31.999-129.179-31.157-132.291-31.534-132.71-31.591-133.174-31.665-133.519-31.927-134.266-32.58-133.479-33.516-132.687-33.58-129.997-33.972-127.257-33.523-124.558-33.753-123.548-33.786-122.608-33.768-121.7-34.313-121.678-34.494-121.642-34.666-121.604-34.846-121.637-34.94-121.683-35.03-121.739-35.112-122.04-35.192-122.302-35.365-122.464-35.667-122.754-35.779-123.074-35.867-123.316-36.069-123.349-36.097-123.379-36.124-123.405-36.155-124.742-36.605-126.125-36.369-127.67-36.146-129.779-36.075-131.95-36.087-134.069-36.099-134.733-36.116-135.11-36.81-134.744-37.37-134.198-38.13-133.117-38.132-132.288-38.358-131.505-38.522-130.728-38.767-129.923-38.751-128.148-38.517-126.358-38.576-124.575-38.457-123.59-38.462-122.613-38.239-121.634-38.376-121.098-38.449-120.559-38.502-120.022-38.562-119.794-38.957-119.264-39.018-118.839-39.055-118.039-39.156-117.236-39.226-116.436-39.313-115.024-39.489-113.474-39.69-112.027-39.839-109.673-40.135-107.306-40.306-104.945-40.536-103.051-40.915-100.728-40.575-99.212-41.96-100.018-42.691-101.162-43.164-102.212-43.482-102.905-43.623-103.6-43.465-104.292-43.391-106.64-43.286-109.009-42.998-111.204-42.12-111.654-41.934-112.017-41.638-112.357-41.297-114.077-40.093-114.146-42.922-114.142-44-114.377-43.452-114.52-42.865-114.929-42.402-115.266-41.616-115.949-41.165-116.816-41.314-117.809-41.383-118.545-42.356-119.562-42.197-120.147-42.099-120.607-41.664-121.212-41.598-122.197-41.394-123.191-41.598-124.148-41.844-124.96-41.997-125.319-42.818-126.015-43.175-126.601-43.516-127.235-43.768-127.885-43.955-128.54-44.155-129.345-44.405-129.531-45.156-129.695-45.803-129.149-46.353-129.26-47.011-129.358-47.657-129.395-48.318-129.582-48.947-129.908-49.769-130.47-51.277-129.124-51.426-127.789-51.317-126.641-49.023-125.98-47.984-125.595-47.457-125.131-46.985-124.703-46.492-124.092-45.849-123.693-44.925-122.834-44.572-122.046-44.358-121.215-44.452-120.404-44.435-120.005-44.806-120.081-45.35-120.465-45.81-121.105-46.377-121.913-46.509-122.614-47.123-124.43-48.791-125.15-51.236-126.978-52.929-127.786-54.048-128.143-55.533-127.845-56.887-127.55-58.177-127.087-59.762-125.661-60.165-124.752-60.426-124.056-59.534-123.984-58.706-123.745-57.632-124.162-56.366-123.463-55.434-122.613-54.552-121.333-54.389-120.164-54.481-119.374-54.491-118.677-54.957-118.11-55.472-117.515-56.319-117.261-57.353-117.131-58.366-117.088-59.099-116.74-59.867-115.977-60.065-115.056-60.48-114.224-59.777-113.328-59.722-112.051-59.724-111.149-60.571-110.362-61.478-109.857-61.975-109.273-62.635-108.508-62.664-107.905-62.701-107.475-62.121-107.527-61.552-107.531-60.797-108.05-60.195-108.441-59.59-108.879-58.931-109.586-58.557-110.192-58.077-110.995-57.394-111.743-56.664-112.352-55.795-112.826-55.256-113.231-54.672-113.572-54.039-114.13-53.11-114.969-52.272-115.226-51.198-115.184-50.548-114.934-49.78-114.385-49.384-113.845-49.086-113.061-49.183-112.527-49.462-111.739-49.989-111.334-50.861-110.79-51.606-110.377-52.263-110.208-53.201-109.404-53.504-108.047-53.991-107.187-52.825-107.365-51.545-107.521-50.012-108.235-47.784-106.94-46.587-105.947-45.949-104.687-46.003-103.569-46.197-102.526-46.397-101.702-47.08-101.06-47.892-99.965-48.849-99.558-49.896-99.909-51.331-100.094-52.434-101.197-52.934-101.793-53.78-102.553-54.895-103.734-56.167-103.368-57.618-103.121-58.214-102.569-58.617-102.156-59.098-101.739-59.65-101.329-60.232-100.982-60.823-100.929-61.565-101.626-62.796-100.983-63.307-101.073-64.765-99.884-66.127-98.78-66.974-97.63-67.974-96.135-68.471-94.65-68.725-93.898-68.886-93.158-68.65-92.41-68.616-92.066-68.696-91.649-68.706-91.372-68.505-90.723-68.705-90.084-68.996-89.407-69.209-88.825-69.424-88.166-69.464-87.712-69.928-86.899-70.458-86.236-71.267-85.968-72.214-85.978-72.649-86.525-72.715-86.867-72.689-87.676-72.619-88.497-72.567-89.308-72.63-90.088-72.596-90.727-73.317-90.271-74.049-89.624-74.975-88.785-75.763-88.11-76.673-87.687-77.341-87.553-78.141-87.182-78.836-87.541-78.685-87.936-78.696-88.312-78.618-88.925-78.309-89.617-78.117-90.176-77.715-90.843-76.975-91.61-76.132-92.475-75.534-92.747-75.29-93.008-75.05-93.376-74.957-94.338-74.738-94.819-75.625-94.232-76.375-92.999-78.251-91.094-79.567-89.639-81.265-89.007-81.758-88.555-82.395-88.297-83.112-88.35-83.189-88.384-83.282-88.398-83.389-88.542-84.158-88.277-84.93-88.402-85.691-88.792-87.091-89.228-88.539-90.166-89.676-90.416-89.91-90.692-90.554-91.1-90.686-92.165-88.738-92.632-86.53-93.344-84.44-93.69-83.642-93.755-82.665-94.333-81.995-94.471-81.12-94.98-79.531-96.105-80.398-96.329-80.634-96.393-80.961-96.39-81.276-96.361-82.292-96.162-83.291-95.885-84.265-95.493-85.999-94.597-87.588-94.381-89.36-94.327-89.89-94.322-90.422-94.314-90.955-94.554-91.058-94.746-91.271-94.773-91.594-96.1-90.132-96.649-88.217-97.4-86.432-98.179-84.401-98.857-82.216-99.303-80.064-99.702-78.091-100.427-76.226-101.05-74.321-101.851-72.072-102.341-69.644-104.546-68.314-105.623-67.686-106.918-67.574-108.05-67.077-108.681-66.764-109.216-66.294-109.865-66.015-110.067-65.763-110.39-65.632-110.71-65.663-111.21-65.683-111.656-66.177-111.518-66.678-112.78-66.888-112.657-67.102-113.551-66.076-114.29-65.013-115.273-64.181-116.432-63.604-117.091-63.238-117.998-63.573-118.143-64.341-118.237-66.985-115.579-68.734-114.323-70.824-114.087-71.17-113.878-71.556-113.861-71.984-113.913-72.377-113.912-72.78-113.727-73.143-113.526-73.613-113.203-74.02-113.016-74.493-112.875-75.16-112.934-75.924-113.223-76.543-113.747-76.495-113.847-75.627-114.045-75.219-114.616-73.12-114.663-71.404-117.381-71.543-117.676-70.226-117.437-68.124-119.216-67.885-119.232-67.388-119.108-66.9-119.231-66.402-119.486-65.557-120.152-64.541-121.143-64.598-122.558-64.682-122.688-66.392-123.575-67.159-123.599-66.158-124.332-65.267-125.228-64.885-123.078-64.933-117.305-63.242-119.888-60.319-121.416-58.227-122.425-60.061-124.043-60.771-124.684-60.993-125.272-61.032-125.955-61.163-126.033-61.108-126.124-61.062-126.233-61.026-127.112-60.758-127.841-60.005-128.824-60.101-129.43-60.144-130.038-60.267-130.611-60.473-131.998-61.138-132.143-62.382-132.877-60.133-133.191-59.071-133.713-57.858-134.77-57.361-135.474-57.088-136.203-57.038-136.649-57.597-136.77-57.498-136.935-57.442-137.154-57.449-137.494-57.48-137.846-57.765-137.802-58.137-137.523-59.977-138.161-61.799-138.339-63.627-138.466-64.311-138.435-65.044-138.071-65.652-137.872-66.075-137.363-66.224-137.149-66.61L-137.142-66.601C-137.004-67.165-137.461-67.614-137.777-68.024-138.485-68.985-139.46-69.732-139.991-70.824-140.699-71.833-141.024-72.99-141.431-74.134-141.662-74.83-142.309-75.174-142.832-75.629-143.238-74.782-143.484-73.871-143.848-73.009-144.359-71.725-145.281-70.687-145.94-69.488-146.471-68.454-146.547-67.273-146.961-66.196-147.22-65.396-147.676-64.667-147.908-63.86-147.98-63.17-147.73-62.496-147.781-61.805-147.712-60.235-149.422-59.738-150.71-59.781-152.1-59.914-153.45-59.313-154.832-59.521-157.643-60.484-155.25-64.34-154.074-65.821-151.512-68.491-150.411-72.025-148.603-75.195-146.449-79.211-144.882-79.97-148.52-83.884-149.268-82.407-150.478-81.199-150.976-79.587-151.392-78.175-151.191-76.847-152.659-75.991-153.414-75.371-154.351-75.131-155.243-74.787-156.12-74.148-156.941-73.393-157.43-72.409-156.836-72.271-156.531-71.659-156.603-71.081-156.661-70.353-157.201-69.79-157.637-69.249-158.497-68.211-159.267-67.101-160.213-66.134-161.746-64.614-161.588-64.248-161.293-62.234-160.172-61.272-160.186-60.687-160.388-59.301-159.179-60.136-156.334-60.042-156.774-58.008-156.896-57.452-157.27-56.98-157.743-56.672-158.805-55.957-159.977-55.348-160.707-54.252-161.917-52.319-163.221-48.617-160.739-47.177-160.428-47.057-160.256-46.863-160.191-46.654-159.422-46.605-158.551-46.768-158.181-45.999-158.022-45.549-158.122-45.236-158.126-44.75-157.931-43.828-158.253-42.787-157.887-41.925-157.455-41.67-156.912-41.75-156.437-41.663-154.793-41.345-153.856-39.317-154.454-37.803-155.438-35.429-158.485-36.127-160.467-35.406-161.166-35.226-161.062-34.392-161.479-33.922-162.792-32.309-165.137-32.644-166.888-33.233-169.79-33.98-172.943-33.859-175.904-34.314-176.701-34.455-177.49-34.644-178.273-34.845-179.016-35.025-180.073-35.234-180.02-36.206-179.876-37.287-178.801-37.915-178.247-38.793-178.069-39.146-177.707-39.553-177.866-39.962-178.226-40.919-179.418-41.163-180.13-41.809-181.055-42.45-181.214-43.335-180.805-44.345-180.536-45.513-180.361-46.845-181.026-47.917-181.526-48.436-182.39-48.305-182.91-47.881-183.16-47.554-183.297-47.141-183.469-46.768-183.692-46.089-183.537-45.001-184.545-44.982-185.988-45.192-185.667-47.369-186.929-47.791-187.971-47.929-189.538-47.624-189.763-46.422-189.836-45.12-190.764-44.025-192.023-43.695-191.111-42.737-190.064-41.921-189.16-40.956-187.897-39.941-186.341-39.331-184.806-38.848-183.734-38.584-182.658-38.346-181.575-38.127-181.164-38.045-180.942-37.629-181.008-37.23-181.153-36.399-181.956-36.544-182.575-36.667-183.794-36.902-185.032-37.115-186.208-37.52-187.418-38.02-188.684-38.491-189.737-39.282-190.408-39.808-190.956-40.465-191.597-41.024-192.294-41.726-193.786-42.787-194.118-43.883-195.106-44.428-196.043-45.059-196.724-45.983-199.014-48.396-200.969-51.422-204.162-52.703-205.746-53.36-207.438-53.617-209.103-53.97-210.649-54.291-212.15-54.793-213.736-54.862-214.486-54.901-214.861-55.82-214.368-56.379-213.826-56.907-212.953-56.835-212.342-57.277-212.407-57.391-212.564-57.453-212.679-57.5-213.488-57.771-214.346-57.985-215.204-57.978-215.647-57.926-216.107-57.894-216.53-57.756-217.498-56.603-218.389-55.968-219.962-56.324-220.479-56.479-220.962-56.577-221.506-56.497-222.243-56.472-223.022-56.702-223.601-57.166-223.829-57.342-224.023-57.55-224.184-57.782-224.924-58.28-225.534-58.965-226.194-59.559-228.152-57.895-228.552-58.26-230.802-59.163-232.281-59.832-233.823-60.371-235.35-60.946-236.022-61.181-236.693-61.407-237.364-61.643-238.722-62.084-240.281-62.365-241.238-63.524-241.518-63.802-241.697-64.217-241.644-64.587-241.922-64.707-242.171-64.864-242.39-65.052-243.006-65.293-243.694-65.763-244.122-65.822-244.973-65.906-245.85-65.628-246.7-65.902-247.493-66.171-248.332-66.601-248.887-67.23-248.931-67.313-248.96-67.402-248.974-67.494-249.652-67.929-250.236-68.51-250.834-69.046-250.839-69.05-250.845-69.054-250.849-69.06H-250.85C-250.975-69.089-251.089-69.16-251.169-69.278-251.346-69.539-251.521-69.8-251.695-70.062-251.742-70.076-251.788-70.095-251.832-70.118-252.265-70.092-252.569-70.479-252.893-70.711-253.778-71.427-254.655-72.153-255.566-72.837-255.882-73.082-256.204-73.317-256.513-73.577-256.996-73.759-257.511-73.851-257.989-74.045-258.013-74.057-258.033-74.069-258.054-74.085-258.649-73.746-259.298-73.48-259.885-73.208-262.314-72.406-264.981-72.054-267.545-71.954-268.148-71.768-268.921-71.68-269.675-71.742-269.736-71.707-269.804-71.681-269.879-71.665-271.093-71.471-272.301-71.199-273.403-70.637-274.735-69.946-276.118-69.348-277.391-68.543-278.306-67.948-279.344-67.049-280.493-66.692-281.233-66.492-282.006-66.579-282.763-66.565-283.584-66.441-284.438-66.332-285.202-65.993-286.623-65.223-287.83-64.004-289.439-63.63-290.572-63.323-291.74-63.031-292.923-63.107-293.434-63.098-294.162-63.173-294.791-63.379-295.056-63.123-295.486-63.065-295.886-63.133-296.132-63.116-296.405-63.054-296.619-63.199-297.672-62.706-299.906-63.185-300.761-63.14-302.129-63.242-303.501-63.228-304.872-63.183-307.495-63.069-310.147-62.53-312.768-62.325-313.994-62.245-315.227-62.32-316.446-62.451-317.348-62.494-318.212-62.887-318.712-63.662-319.294-64.333-319.309-65.27-318.643-65.886-317.534-67.125-315.65-66.849-314.248-67.556-313.028-68.183-312.155-68.979-311.022-69.805-310.217-70.296-309.41-70.784-308.736-71.452-308.485-71.756-307.917-71.977-307.996-72.429-308.715-73.109-309.779-72.34-310.554-72.102-310.858-71.949-311.275-71.671-311.61-71.728-311.752-71.634-311.897-71.546-312.049-71.464-312.935-70.886-313.862-70.339-314.874-70.011-315.859-69.719-316.896-69.715-317.868-69.358-318.535-69.184-319.739-68.905-319.782-69.922-319.78-70.361-319.418-70.813-318.964-70.846-318.325-70.865-317.735-71.118-317.12-71.257-316.185-71.422-315.217-71.48-314.367-71.949-313.336-72.478-312.329-73.085-311.435-73.828-310.96-74.272-310.511-74.746-309.956-75.095-309.122-75.6-308.251-76.046-307.507-76.687-305.169-78.244-303.118-78.2-302.144-81.339-301.764-82.422-302.836-83.323-302.922-84.36-302.729-86.309-299.558-85.783-298.18-86.189-297.838-86.388-298.02-87.062-297.857-87.414-297.759-87.791-297.599-88.158-297.411-88.499-296.767-89.859-295.567-89.941-294.278-90.263-292.567-90.779-291.142-91.929-289.937-93.213-288.298-94.924-289.575-97.03-287.124-98.16-286.816-98.342-286.646-98.659-286.429-98.93-285.79-99.658-285.047-100.287-284.378-100.988-283.808-101.552-283.12-102.086-282.902-102.892-282.789-103.444-282.796-104.01-282.814-104.571-283.882-103.883-284.889-103.099-286.021-102.504-287.081-101.779-287.906-100.781-288.906-99.976-290.078-98.994-291.318-98.084-292.364-96.963-292.973-96.228-293.426-95.371-294.235-94.822-294.915-94.446-295.919-93.003-296.688-93.783-297.004-94.127-296.918-94.696-296.591-95.002-295.987-95.588-295.244-96.009-294.642-96.597-294.167-97.189-293.781-97.845-293.231-98.381-292.056-99.56-290.708-100.537-289.453-101.626-288.102-103.074-286.507-104.201-284.795-105.18-283.845-105.92-282.832-106.686-281.639-106.963-281.027-107.071-280.401-107.052-279.782-107.079-276.673-107.017-273.45-107.311-270.458-106.302-269.029-105.892-267.756-105.071-266.307-104.714-264.781-104.409-263.232-104.227-261.734-103.783-257.514-102.482-253.199-101.136-249.191-99.23-246.872-98.081-244.668-96.709-242.461-95.366-239.367-93.71-236.072-92.462-233.03-90.663-229.746-88.584-226.607-86.302-223.267-84.309-220.534-82.756-218.057-80.782-215.679-78.732-214.752-78.034-213.935-77.223-213.13-76.396-212.967-76.393-212.788-76.325-212.605-76.173-211.788-75.364-210.996-74.489-210.031-73.857H-210.03C-209.799-75.068-209.886-76.578-209.019-77.642-208.532-78.454-207.343-78.621-206.934-77.657-206.639-76.646-206.951-75.581-206.876-74.547-206.842-73.78-207.056-72.831-206.452-72.235-205.518-71.792-205.425-76.782-204.095-77.122-202.322-77.762-201.365-74.368-201.404-73.06-200.835-73.668-200.543-74.453-200.115-75.152-199.784-75.679-199.337-76.136-199.107-76.724-198.421-78.798-198.069-81.127-196.547-82.804-194.906-84.127-193.837-85.993-192.196-87.305-190.426-88.78-188.511-90.075-186.603-91.366-182.68-94.434-178.622-97.312-174.351-99.883-173.48-100.414-172.457-100.567-171.513-100.91-170.506-101.429-169.715-102.275-168.778-102.906-167.927-103.609-166.877-103.997-165.98-104.614-164.986-105.708-165.677-107.31-166.216-108.469-166.51-109.198-167.085-109.691-167.613-110.245-168.783-111.863-169.88-113.517-170.926-115.226-171.64-116.26-172.429-117.258-172.827-118.469-173.096-119.239-173.324-120.026-173.559-120.807-173.618-120.995-173.669-121.183-173.709-121.373-173.771-121.395-173.835-121.427-173.898-121.47-174.624-122.206-174.529-123.485-174.502-124.464-174.562-126.209-173.038-127.283-171.479-127.597-168.228-128.533-164.842-128.992-161.639-130.09-159.388-131.002-160.013-133.242-159.973-135.144-159.726-138.336-158.668-142.016-155.151-142.847-154.126-143.077-153.051-142.869-152.028-143.135-149.964-143.812-148.022-145.136-146.057-146.152-144.635-147.087-143.397-148.371-141.874-149.224-139.852-150.389-137.861-151.839-136.026-153.312-134.941-154.154-133.809-154.942-132.764-155.833-131.927-156.613-131.117-157.422-130.209-158.122-127.169-160.203-124.656-162.882-121.503-164.821-119.707-165.944-118.11-167.908-115.868-168.155-115.233-168.129-114.595-168.086-113.968-168.217-113.108-168.612-112.998-169.816-112.652-170.604-112.364-171.427-112.012-172.246-112.008-173.133-112.046-174.583-112.708-176.009-112.223-177.457-111.993-178.193-111.207-178.455-110.551-178.694-109.925-178.911-109.31-179.155-108.689-179.386-107.482-179.872-106.208-179.458-104.971-179.516-103.734-179.663-102.477-179.948-101.222-179.957-99.89-179.939-98.563-179.768-97.238-179.645-97.104-179.63-96.99-179.567-96.901-179.477H-96.899C-96.88-179.471-96.861-179.465-96.841-179.456-96.557-179.343-96.342-179.031-96.408-178.719-96.723-177.12-97.329-175.725-98.127-174.282-99.217-172.396-100.49-170.588-101.966-168.985-103.367-167.679-104.909-166.537-106.33-165.26-108.218-163.26-110.107-161.168-112.516-159.784-114.352-158.463-115.912-157.039-117.805-155.693-119.062-154.616-120.451-153.526-120.858-151.839-121.031-151.23-121.487-150.551-121.105-149.941-120.839-149.622-120.389-149.526-120.12-149.198-119.805-148.858-119.609-148.422-119.51-147.972-119.352-147.257-119.377-146.514-119.543-145.804-119.899-144.004-121.47-142.867-122.25-141.287-122.518-140.436-122.355-139.493-122.479-138.608-122.439-137.847-122.355-137.082-122.548-136.334-124.176-129.975-132.304-128.404-137.873-127.381-140.605-126.474-142.128-126.27-141.72-129.735-141.524-130.624-141.551-131.695-141.251-132.593-140.847-133.722-140.238-134.8-139.462-135.718-141.464-134.361-143.986-132.477-143.57-129.745-143.568-128.17-144.315-126.65-143.927-125.07-143.85-124.786-143.862-124.515-143.968-124.311-143.884-123.589-143.843-122.86-143.801-122.134-143.749-119.737-144.439-117.422-144.736-115.042-145.011-112.865-144.896-110.64-144.729-108.457-144.566-106.263-144.071-104.1-143.942-101.911-143.817-101.804-143.694-101.71-143.574-101.643-142.582-100.874-141.75-99.84-141.304-98.662-140.641-96.89-140.946-93.915-138.637-93.418-136.138-92.857-134.366-95.408-132.321-96.42-130.739-97.508-128.936-98.281-127.256-99.21-125.128-100.331-123.078-101.604-120.892-102.604-119.17-103.443-117.346-104.059-115.684-105.024-113.085-106.417-110.299-107.431-107.502-108.347-105.514-108.964-103.418-109.027-101.364-109.258-98.948-109.705-96.426-110.047-93.981-110.444-91.711-110.814-89.721-111.791-87.428-112.252-85.789-112.564-84.134-112.762-82.504-113.12-81.771-113.275-81.019-113.391-80.33-113.692-79.888-113.885-79.502-114.154-79.144-114.464-76.476-119.01-74.608-123.982-73.375-129.104-72.917-130.989-72.569-132.901-72.353-134.829-72.032-137.295-71.492-139.725-71.079-142.176-70.86-143.587-70.657-145.009-70.638-146.437-70.642-146.789-70.639-147.145-70.629-147.503-70.887-147.578-71.137-147.708-71.376-147.82-71.898-148.038-72.447-148.176-73.004-148.278-73.567-148.325-74.132-148.357-74.699-148.347-76.603-148.255-78.469-147.775-80.377-147.744H-80.38C-80.446-147.73-80.512-147.717-80.579-147.703-81.813-147.261-82.941-146.58-84.147-146.075-84.807-145.748-85.533-145.657-86.255-145.582-87.81-145.167-89.422-144.915-90.915-144.297-92.304-143.4-92.915-141.568-94.615-141.083-96.172-140.292-98.035-140.387-99.499-139.392-100.534-138.648-102.057-138.402-102.593-137.109-102.109-136.069-101.615-134.962-101.951-133.79-102.203-132.895-102.428-131.969-102.804-131.12-103.727-129.35-105.997-129.572-107.695-129.465-110.21-129.159-112.737-129.18-115.212-129.767-116.432-130.029-117.591-130.51-118.748-130.962-120.24-131.418-121.89-132.877-120.422-134.339-119.986-134.72-119.443-134.934-118.999-135.317-118.373-135.794-117.868-136.396-117.264-136.896-115.686-138.02-113.865-138.72-112.208-139.718-111.098-140.6-110.003-141.21-108.757-141.863-107.277-142.886-105.641-143.667-104.26-144.833-103.019-146.209-101.542-147.352-100.317-148.742-98.659-151.144-95.629-151.687-92.926-152.067-89.925-152.381-86.951-152.921-83.953-153.283-81.711-153.39-79.412-153.415-77.22-153.937-74.564-154.916-71.95-156.233-69.058-156.31-66.848-156.545-64.892-155.213-63.417-153.693-62.508-152.457-60.446-151.492-61.073-149.667-61.736-147.998-63.862-148.069-65.353-148.262-66.46-148.503-67.549-148.998-68.659-148.869-68.612-148.062-68.622-147.25-68.659-146.441-68.128-146.435-67.585-145.875-67.061-145.716-65.843-146.33-64.334-146.413-63.729-144.955-63.486-144.09-63.771-143.282-63.888-142.403-64.051-141.442-64.164-140.269-64.432-139.279-64.689-138.029-65.139-136.81-65.227-135.532-64.639-136.645-64.144-137.808-63.533-138.912-62.981-140.053-62.651-141.282-62.171-142.454-61.896-143.104-61.327-143.971-60.509-143.862-60.168-143.818-59.864-143.638-59.734-143.308-59.483-141.875-59.654-140.371-59.682-138.918-59.766-135.332-60.67-131.864-61.411-128.366-61.572-126.995-61.794-125.638-62.215-124.321-62.396-123.629-62.556-122.933-62.763-122.25-62.992-121.235-63.829-120.215-63.493-119.153-62.983-118.637-62.255-118.324-61.786-117.737-60.844-116.557-59.898-115.554-59.139-114.211-58.213-112.098-57.309-111.505-55.098-111.092-54.191-110.805-53.228-110.801-52.333-110.482-51.572-110.177-50.834-109.828-50.064-109.553-48.704-108.986-47.326-108.458-46.066-107.685-44.481-106.58-42.795-105.678-41.017-104.803-39.849-104.027-38.538-103.646-37.164-103.433-34.399-102.863-31.577-102.656-28.762-102.511-26.63-102.336-24.484-102.348-22.347-102.365-21.645-102.388-20.932-102.151-20.302-102.568-19.779-103.825-19.989-105.3-20.766-106.411-21.181-107.19-21.926-107.931-22.757-108.333-25.628-110.213-25.269-112.162-25.563-115.182-25.681-116.154-26.278-116.958-26.751-117.787-27.187-118.412-27.673-119.436-26.664-119.794-26.513-120.829-26.23-121.919-24.93-121.554-23.309-120.684-22.033-119.231-20.787-117.897-19.842-116.599-19.037-115.205-18.062-113.929-16.554-112.352-15.062-110.764-13.925-108.886-13.137-107.724-12.175-106.672-11.519-105.427-10.992-104.173-10.97-102.171-11.78-101.034-12.314-100.429-13.063-100.008-13.858-99.867-13.919-99.851-14.058-99.827-14.109-99.753-14.255-99.09-14.162-98.378-14.24-97.7-14.574-94.043-16.666-92.247-20.286-92.149-21.562-92.004-22.823-91.728-24.088-91.506-25.53-91.311-26.998-91.406-28.446-91.254-29.374-91.16-30.297-90.991-31.232-91.098-32.118-91.199-32.997-91.361-33.889-91.414-34.914-91.499-35.125-91.228-35.097-90.208-34.864-88.75-33.358-88.074-32.324-87.22-31.125-86.146-29.277-85.474-28.906-83.748-28.621-82.771-29.251-81.904-30.301-82.092-31.219-82.217-31.959-82.816-32.614-83.431-33.251-83.99-33.889-84.564-34.335-85.293-34.828-86.08-35.228-86.961-35.996-87.525-36.072-86.555-36.617-85.666-36.686-84.712-36.58-83.955-36.033-83.25-35.308-83-34.851-83.349-33.99-83.196-33.867-82.551-33.801-82.159-33.732-81.759-33.768-81.36-33.84-80.494-34.164-79.681-34.39-78.852-34.432-78.466-34.368-78.077-34.325-77.695-34.252-76.571-33.558-75.407-34.001-74.301-34.807-72.877-37.414-72.204-38.689-73.35-39.195-73.803-39.66-74.369-39.723-75.068-39.823-75.97-39.893-77.003-39.391-77.804-38.906-78.494-38.26-79.064-37.501-79.433-37.019-79.677-36.494-79.884-36.162-80.332-37.077-83.779-38.887-78.352-41.027-80-42.073-80.764-41.452-82.169-41.896-83.185-42.323-83.262-42.489-82.666-42.812-82.463-43.067-82.23-43.351-82.054-43.647-81.875-44.735-81.128-46.009-80.739-47.16-80.12-47.984-79.535-48.626-78.733-49.455-78.149-49.992-77.584-51.071-77.054-51.075-76.202-50.436-75.995-49.718-75.904-49.221-75.406-48.429-74.431-49.165-73.071-49.843-72.239-50.214-71.533-50.068-70.678-50.297-69.924-50.661-68.205-52.076-67.036-53.308-65.897-53.972-65.299-54.898-65.056-55.624-64.536-57.286-63.43-58.532-61.85-59.722-60.274-60.416-59.277-60.724-58.108-61.07-56.962-61.66-55.325-62.383-53.645-62.16-51.868-62.158-51.706-62.103-51.523-62.031-51.331-60.221-51.151-58.389-52.061-56.7-52.641-55.812-52.929-54.514-52.947-54.03-51.989-53.443-50.534-55.877-48.865-56.399-47.475-55.062-47.837-53.639-48.219-52.311-47.592-51.767-47.396-51.269-47.037-50.69-46.953-49.354-46.946-47.968-46.989-46.633-47.232-46.539-47.305-46.429-47.358-46.31-47.381-45.927-47.485-45.523-47.537-45.125-47.609-44.902-47.682-44.681-47.762-44.464-47.852-44.367-47.892-44.268-47.895-44.181-47.866-43.995-47.942-43.817-48.037-43.65-48.162-43.226-48.666-42.836-49.216-42.243-49.539-41.488-50.08-40.585-50.374-39.844-50.928-39.181-51.433-38.664-52.083-38.137-52.721-37.445-53.484-36.623-54.125-36.001-54.955-35.626-55.452-35.322-55.916-34.904-56.406-34.669-56.766-34.154-56.86-33.784-56.667-33.465-56.5-33.267-56.096-33.443-55.754-33.591-55.377-34.787-53.894-33.928-53.881-32.858-53.842-31.791-53.675-30.721-53.715-30.586-53.734-30.419-53.769-30.243-53.792-30.105-54.87-29.942-55.945-29.708-57.006-29.43-58.573-28.795-60.075-28.132-61.529-27.71-63.14-27.568-64.809-27.518-66.47-27.481-67.149-27.495-67.817-27.553-68.495-27.582-69.369-27.681-70.232-28.366-70.854-28.743-70.27-29.073-69.624-29.343-68.985-29.423-68.626-29.516-68.275-29.639-67.926-29.77-67.522-29.89-66.979-30.354-66.841-30.356-66.558-30.592-66.312-30.871-66.245-31.647-66.056-31.824-66.882-31.974-67.451-32.147-68.042-32.049-68.654-31.905-69.238-31.708-69.875-31.348-70.448-31.112-71.07-30.609-72.38-30.362-73.767-29.913-75.092-29.708-75.654-29.712-76.411-29.155-76.757-28.643-77.036-28-76.75-27.769-76.238-27.6-75.846-27.733-75.417-27.778-75.011-27.797-74.912-27.816-74.812-27.837-74.711-27.761-73.469-27.137-72.239-26.528-71.154-26.298-71.014-26.172-70.767-26.087-70.494-23.718-67.305-21.297-64.145-19.166-60.787-17.714-58.587-16.485-56.171-15.044-53.951-13.591-51.75-12.132-49.551-10.561-47.434-9.299-45.782-8.463-43.883-7.23-42.208-5.488-39.809-2.717-38.484-.206-37.06 .036-36.93 .287-36.823 .538-36.718 2.277-36.493 4.017-36.279 5.771-36.213 7.804-36.185 9.671-36.935 11.572-37.538 12.68-37.831 13.82-37.937 14.964-37.987 16.159-38.028 17.374-37.913 18.516-38.352 20.193-38.906 21.5-40.149 23.11-40.842 24.166-41.379 25.326-41.612 26.487-41.793 28.495-42.201 30.452-42.857 32.262-43.822 33.675-44.526 35.096-45.219 36.344-46.206 37.339-47.053 38.087-48.169 39.225-48.853 40.644-49.88 42.12-50.657 43.81-50.824 43.997-50.911 44.224-50.919 44.432-50.856 44.627-50.859 44.824-50.852 45.025-50.837 45.973-50.904 46.198-49.324 45.234-49.212" fill="currentColor"/>
</g>
</g>
</g>
</svg>
