<svg xmlns="http://www.w3.org/2000/svg" xmlns:xlink="http://www.w3.org/1999/xlink" xmlns:inkscape="http://www.inkscape.org/namespaces/inkscape" version="1.1" viewBox="0 0 97.8606 53.8737">
<defs>
<clipPath id="clip_1">
<path transform="matrix(1,0,0,-1,0,53.8737)" d="M0 53.874H97.861V0H0Z"/>
</clipPath>
</defs>
<g>
<g inkscape:groupmode="layer" inkscape:label="Merch">
</g>
<g inkscape:groupmode="layer" inkscape:label="Working Layer">
<path transform="matrix(1,0,0,-1,41.4522,-.00030136109)" d="M0 0-.004-.017H.789Z" fill="currentColor"/>
<g clip-path="url(#clip_1)">
<path transform="matrix(1,0,0,-1,66.5535,4.9111979)" d="M0 0-.017-.077C-.781-4.04-2.533-10.372-5.499-20.675L-6.272-23.38C-8.59-31.507-10.591-38.53-12.201-42.909-12.592-43.914-12.991-44.081-13.802-44.206L-17.816-44.626-18.215-44.609C-19.563-44.553-22.723-44.412-23.127-43.888-23.161-43.845-23.256-43.626-23.041-42.69-22.049-37.792-20.096-30.691-17.64-21.903L-17.091-19.894C-14.502-10.385-13.201-5.611-11.681-1.82-11.02-.129-10.819 .382-6.483 .541L-5.688 .571-5.68 .605-.073 .056C-.043 .051-.013 .047 .009 .043 .009 .03 .004 .017 0 0M-25.295 4.327-26.192 1.639C-26.369 1.109-25.981 .559-25.423 .548L-25.097 .541C-23.382 .51-22.404 .414-21.85 .307-21.412 .223-21.117-.184-21.184-.625-21.189-.655-21.194-.685-21.199-.717-21.903-4.113-24.015-11.596-25.557-17.057L-25.806-17.935C-25.905-18.286-26.221-18.531-26.585-18.538-29.021-18.585-32.345-18.585-35.581-18.585-37.929-18.585-40.196-18.585-41.908-18.566-42.453-18.56-42.842-18.042-42.696-17.517-41.083-11.695-39.341-5.619-37.947-1.709-37.38-.133-37.169 .455-32.936 .541L-32.756 .545C-32.385 .553-32.065 .806-31.971 1.165L-31.271 3.856C-31.134 4.381-31.53 4.894-32.073 4.894H-51.352C-51.705 4.894-52.02 4.67-52.135 4.336L-53.034 1.741C-53.215 1.217-52.841 .666-52.288 .641L-51.972 .627C-50.843 .571-47.842 .425-47.425-.112-47.383-.167-47.297-.391-47.464-1.206-48.1-4.19-49.327-8.449-51.182-14.893-51.697-16.679-52.26-18.628-52.865-20.753-53.281-22.204-53.685-23.625-54.08-25.003-56.093-32.061-57.832-38.157-59.33-42.454-59.807-43.828-60.219-44.446-64.929-44.609L-65.103-44.616C-65.458-44.63-65.765-44.868-65.866-45.209L-66.519-47.413C-66.676-47.944-66.278-48.477-65.724-48.477H-45.701C-45.324-48.477-44.994-48.222-44.899-47.857L-44.329-45.664C-44.197-45.156-44.566-44.654-45.091-44.628L-45.378-44.614C-46.257-44.569-48.017-44.478-48.986-44.259-49.412-44.163-49.691-43.755-49.619-43.325-49.606-43.246-49.589-43.158-49.568-43.06-48.423-38.324-46.479-30.959-44.532-23.981-44.435-23.632-44.127-23.388-43.764-23.376-41.93-23.317-39.145-23.268-36.075-23.268-33.363-23.268-30.565-23.306-28.424-23.357-27.884-23.369-27.503-23.886-27.648-24.406-28.813-28.587-30.739-35.375-32.589-41.596-33.293-43.974-33.555-44.292-38.041-44.614L-38.779-44.665-39.593-47.413C-39.751-47.944-39.352-48.477-38.798-48.477H3.567C3.934-48.477 4.257-48.236 4.362-47.884L5.014-45.688C5.167-45.172 4.795-44.649 4.258-44.624L3.95-44.609C2.177-44.532-.704-44.197-1.777-44.047-2.022-44.012-2.142-43.97-2.194-43.944-2.202-43.871-2.211-43.678-2.116-43.278-.878-37.616 1.292-29.815 2.682-24.971 2.782-24.625 3.091-24.385 3.45-24.373 4.468-24.338 5.991-24.338 7.843-24.338 10.355-24.338 11.742-24.642 12.334-25.325 13.184-26.304 12.905-28.811 12.45-31.983L12.411-32.255C12.338-32.755 12.726-33.203 13.231-33.203H15.678C16.086-33.203 16.433-32.906 16.497-32.503L16.528-32.305C17.026-29.262 19.92-18.761 21.482-14.7L21.596-14.406C21.794-13.89 21.442-13.327 20.891-13.281L17.859-13.029 17.546-13.704C15.064-19.061 14.056-19.735 8.582-19.735 7.318-19.735 6.137-19.735 5.182-19.722 4.639-19.714 4.254-19.197 4.399-18.673 6.264-11.915 8.888-2.768 9.749-.404 9.865-.086 9.99 .047 10.471 .047H16.378C19.254 .047 22.307-.065 23.131-.915 23.436-1.228 23.552-1.773 23.522-2.79 23.427-5.736 22.985-8.427 22.8-9.449L22.75-9.73C22.658-10.239 23.048-10.707 23.565-10.707H26.084C26.451-10.707 26.774-10.465 26.879-10.113L26.93-9.939C26.986-9.737 27.076-9.428 27.188-9.028 27.862-6.637 29.438-1.039 31.253 3.773 31.457 4.316 31.056 4.894 30.477 4.894 26.371 4.894 22.265 4.894 18.158 4.894 3.936 4.894-10.286 4.894-24.508 4.894-24.865 4.894-25.182 4.666-25.295 4.327" fill="currentColor"/>
<path transform="matrix(1,0,0,-1,46.8612,53.8694)" d="M0 0V-.004H.61C.421-.004 .215-.004 0 0" fill="currentColor"/>
</g>
</g>
</g>
</svg>
