<svg xmlns="http://www.w3.org/2000/svg" xmlns:xlink="http://www.w3.org/1999/xlink" xmlns:inkscape="http://www.inkscape.org/namespaces/inkscape" version="1.1" viewBox="0 0 112.822 90.3942">
<defs>
<clipPath id="clip_1">
<path transform="matrix(1,0,0,-1,0,90.3942)" d="M0 90.394H112.822V0H0Z"/>
</clipPath>
</defs>
<g>
<g inkscape:groupmode="layer" inkscape:label="Merch">
</g>
<g inkscape:groupmode="layer" inkscape:label="Working Layer">
<g clip-path="url(#clip_1)">
<path transform="matrix(1,0,0,-1,52.7848,19.170502)" d="M0 0C-3.293 2.772-8.044 4.268-14.472 4.564-15.06 4.598-15.662 4.617-16.274 4.617-21.599 4.617-27.783 3.341-33.28 1.095-34.465 2.242-34.981 3.733-34.67 5.195-33.499 11.585-22.335 15.036-12.427 15.036-2.686 15.036 6.959 14.033 16.255 12.059 12.193 10.19 6.749 6.156 0 0M-6.739-6.495C-19.959-19.653-33.351-27.826-41.692-27.826-43.919-27.826-46.916-27.425-48.536-25.522-49.621-24.242-49.974-22.378-49.582-19.969-48.87-15.466-44.229-10.343-36.511-5.535-30.995-2.046-21.967 1.649-14.974 1.649-14.855 1.649-14.735 1.649-14.62 1.644-9.043 1.458-5.066 .282-2.213-2.046-4.129-3.857-5.587-5.291-6.739-6.495M49.669 11.652C48.359 13.617 44.755 14.515 41.964 14.515 30.034 14.515 18.267 4.966 9.344-3.355 7.724-4.885 5.974-6.663 4.196-8.584 4.192-6.777 3.695-5.009 2.705-3.293 12.962 7.714 18.191 10.338 20.777 10.572 20.891 10.572 21.001 10.582 21.106 10.591 21.274 10.601 21.388 10.61 21.527 10.587L21.665 10.572C21.732 10.563 21.919 10.491 22.033 10.443 22.43 10.285 22.98 10.066 23.506 10.419L23.635 10.505 23.73 10.625C23.96 10.912 24.041 11.28 23.955 11.638 23.792 12.302 23.118 12.723 22.153 13.153 20.848 13.741 18.224 14.515 17.154 14.802L16.408 14.998C12.145 16.14 .822 19.171-12.427 19.171-23.654 19.171-35.76 15.055-37.495 5.864-37.892 3.671-37.342 1.515-36.013-.143-36.931-.597-37.935-1.128-38.886-1.697-46.471-6.299-51.728-13.12-52.608-19.476-53.115-22.803-52.531-25.46-50.878-27.382-48.99-29.585-45.678-30.747-41.309-30.747-33.772-30.747-18.492-27.692-.841-7.26L-.808-7.217C-.43-6.73 .057-6.194 .578-5.625 .602-5.602 .626-5.578 .65-5.549 1.721-7.867 1.549-10.41 .139-13.282-2.868-16.881-5.195-20.189-6.103-22.134-6.462-22.88-7.203-24.729-6.409-25.857-6.056-26.354-5.468-26.607-4.837-26.536-3.585-26.45-2.791-25.303-1.587-23.568-1.343-23.219-1.08-22.836-.793-22.435 1.907-18.745 5.735-13.746 11.433-7.805 23.878 5.234 34.216 11.848 42.155 11.848 44.167 11.848 46.027 11.141 47.264 9.903L47.389 9.798C47.542 9.688 47.68 9.578 47.795 9.483 48.134 9.215 48.426 8.981 48.851 8.981H49.081L49.291 9.081C49.678 9.277 49.946 9.612 50.051 10.027 50.18 10.544 50.032 11.146 49.669 11.652" fill="currentColor"/>
<path transform="matrix(1,0,0,-1,73.4181,62.539205)" d="M0 0C-.722-.779-2.949-3.064-4.015-4.044-4.33-4.063-4.631-4.082-4.932-4.101-6.4-4.187-7.786-4.273-9.688-4.478L-10.037-4.531C-10.515-4.603-11.074-4.684-11.652-4.784-8.88-1.305-7.341 2.227-7.623 4.679-7.771 5.955-8.383 6.968-9.382 7.609-10.501 8.355-12.183 8.732-14.391 8.732-19.027 8.732-27.062 6.949-34.465 1.921-37.548-.229-40.301-2.777-42.485-5.492-43.278-4.287-43.675-2.519-43.632-.287-43.632 1.357-43.015 7.083-35.067 11.743-28.973 15.27-21.417 16.838-10.563 16.838-2.165 16.838 10.376 15.084 15.476 14.315 10.72 10.233 5.879 5.75 0 0M-43.871-22.808C-44.88-21.747-45.334-20.217-45.228-18.263-44.961-13.751-39.474-7.031-31.889-1.931-26.273 1.83-18.473 5.874-13.435 5.936-12.073 5.936-11.366 5.845-10.759 5.281-10.501 5.061-10.367 4.727-10.343 4.263-10.238 1.988-12.728-2.208-16.556-6.218-18.181-6.926-19.629-7.91-20.413-8.565-21.087-9.057-22.43-10.357-22.521-11.433-22.555-11.829-22.425-12.193-22.163-12.455-20.977-13.645-19.199-12.126-18.525-11.547-18.191-11.256-17.856-10.945-17.522-10.639-16.881-10.051-16.217-9.44-15.734-9.119-14.73-8.402-12.89-7.752-10.797-7.38-9.674-7.236-8.455-7.131-7.212-7.045-16.872-16.117-27.802-24.806-37.6-24.806-39.598-24.806-42.308-24.462-43.871-22.808M39.316 13.406 39.283 13.483C38.9 14.238 38.088 14.056 37.777 13.99 37.619 13.951 37.438 13.913 37.18 13.884 36.448 13.779 35.559 13.884 33.987 14.133 30.417 14.778 27.181 15.514 24.328 16.169 23.95 16.255 23.582 16.336 23.224 16.417 24.136 17.058 25.193 17.665 25.991 17.899L26.187 17.966C26.717 18.129 27.602 18.406 27.764 19.223L27.774 19.276C27.831 19.701 27.673 20.107 27.348 20.37 26.646 20.934 25.422 20.561 25.021 20.413 22.569 19.658 20.251 18.057 19.218 17.278 18.793 17.359 18.334 17.45 17.842 17.546 11.6 18.764-.024 21.039-10.501 21.039-24.189 21.039-30.852 18.616-37.156 14.707-43.513 10.826-46.485 4.254-46.552-.182-46.734-4.502-45.267-6.753-44.21-7.8-46.634-11.399-48.024-15.051-48.144-18.153-48.282-20.953-47.546-23.224-45.95-24.901-43.622-27.344-40.162-27.855-37.662-27.855-25.308-27.855-14.377-21.732 0-6.744 2.552-6.706 5.353-6.878 6.777-7.064L6.906-7.069C7.136-7.069 7.394-7.093 7.638-7.112 8.307-7.174 8.88-7.222 9.344-6.873L9.449-6.782C9.879-6.352 10.032-5.783 9.85-5.257 9.707-4.832 9.296-4.297 8.168-4.153 6.897-4.01 4.875-3.9 2.672-3.857 3.422-3.073 4.168-2.275 4.44-1.969L5.014-1.348C9.172 3.169 13.469 7.834 19.821 13.516 25.413 12.446 29.752 11.743 33.437 11.303 35.139 11.088 36.549 11.112 37.634 11.375 38.174 11.456 38.895 11.743 39.225 12.302 39.426 12.647 39.459 13.048 39.316 13.406" fill="currentColor"/>
</g>
</g>
</g>
</svg>
