<svg xmlns="http://www.w3.org/2000/svg" xmlns:xlink="http://www.w3.org/1999/xlink" xmlns:inkscape="http://www.inkscape.org/namespaces/inkscape" version="1.1" viewBox="0 0 178.007 105.446">
<defs>
<clipPath id="clip_1">
<path transform="matrix(1,0,0,-1,0,105.446)" d="M0 105.446H178.007V0H0Z"/>
</clipPath>
</defs>
<g>
<g inkscape:groupmode="layer" inkscape:label="Merch">
</g>
<g inkscape:groupmode="layer" inkscape:label="Working Layer">
<path transform="matrix(1,0,0,-1,82.7748,27.7994)" d="M0 0H.735L.005 .016Z" fill="currentColor"/>
<g clip-path="url(#clip_1)">
<path transform="matrix(1,0,0,-1,106.0191,32.330499)" d="M0 0-.016-.072C-.723-3.74-2.345-9.603-5.092-19.142L-5.807-21.646C-7.953-29.171-9.806-35.673-11.296-39.727-11.658-40.657-12.027-40.812-12.779-40.928L-16.495-41.317-16.865-41.301C-18.113-41.25-21.038-41.118-21.412-40.634-21.444-40.594-21.531-40.391-21.332-39.525-20.414-34.989-18.606-28.415-16.332-20.279L-15.823-18.419C-13.427-9.615-12.222-5.195-10.815-1.685-10.203-.119-10.016 .354-6.002 .501L-5.267 .529-5.259 .56-.068 .052C-.04 .048-.012 .044 .008 .04 .008 .028 .004 .016 0 0M-23.419 4.007-24.25 1.517C-24.413 1.027-24.055 .518-23.537 .507L-23.236 .501C-21.649 .473-20.743 .384-20.23 .285-19.824 .206-19.551-.17-19.614-.579-19.618-.606-19.622-.634-19.627-.664-20.279-3.808-22.235-10.736-23.661-15.792L-23.892-16.605C-23.984-16.93-24.276-17.157-24.613-17.163-26.869-17.207-29.946-17.207-32.943-17.207-35.116-17.207-37.216-17.207-38.8-17.189-39.305-17.184-39.665-16.704-39.53-16.218-38.036-10.828-36.423-5.203-35.133-1.582-34.608-.123-34.413 .421-30.494 .501L-30.327 .504C-29.984 .512-29.687 .746-29.601 1.078L-28.952 3.57C-28.825 4.056-29.192 4.531-29.695 4.531H-47.544C-47.871 4.531-48.162 4.324-48.269 4.015L-49.101 1.612C-49.269 1.127-48.923 .617-48.41 .594L-48.118 .58C-47.073 .529-44.294 .393-43.909-.103-43.869-.155-43.79-.362-43.945-1.117-44.533-3.879-45.67-7.822-47.387-13.788-47.864-15.442-48.384-17.246-48.945-19.214-49.33-20.557-49.704-21.873-50.07-23.149-51.934-29.683-53.544-35.327-54.931-39.306-55.372-40.578-55.754-41.15-60.114-41.301L-60.276-41.308C-60.604-41.321-60.888-41.541-60.981-41.857L-61.586-43.897C-61.732-44.389-61.363-44.883-60.85-44.883H-42.312C-41.963-44.883-41.657-44.646-41.569-44.308L-41.042-42.278C-40.92-41.807-41.261-41.343-41.747-41.319L-42.013-41.305C-42.827-41.264-44.457-41.18-45.354-40.977-45.748-40.889-46.006-40.51-45.939-40.112-45.927-40.039-45.912-39.957-45.892-39.867-44.833-35.482-43.032-28.663-41.23-22.202-41.14-21.879-40.854-21.653-40.519-21.643-38.821-21.588-36.242-21.543-33.4-21.543-30.889-21.543-28.299-21.578-26.316-21.625-25.816-21.636-25.464-22.115-25.598-22.597-26.677-26.467-28.46-32.752-30.172-38.511-30.824-40.713-31.067-41.007-35.22-41.305L-35.904-41.353-36.657-43.897C-36.803-44.389-36.434-44.883-35.921-44.883H3.302C3.642-44.883 3.942-44.659 4.038-44.333L4.642-42.3C4.784-41.822 4.44-41.338 3.942-41.315L3.657-41.301C2.015-41.23-.652-40.92-1.646-40.781-1.872-40.749-1.984-40.709-2.031-40.685-2.039-40.618-2.047-40.439-1.959-40.069-.813-34.827 1.196-27.604 2.484-23.12 2.575-22.799 2.861-22.577 3.195-22.565 4.136-22.533 5.547-22.533 7.262-22.533 9.587-22.533 10.871-22.815 11.419-23.447 12.206-24.353 11.948-26.674 11.527-29.612L11.49-29.863C11.423-30.326 11.782-30.741 12.25-30.741H14.515C14.893-30.741 15.215-30.466 15.274-30.093L15.303-29.91C15.764-27.092 18.443-17.37 19.889-13.609L19.994-13.337C20.178-12.86 19.852-12.339 19.341-12.297L16.535-12.063 16.245-12.687C13.947-17.648 13.013-18.272 7.945-18.272 6.775-18.272 5.682-18.272 4.798-18.259 4.295-18.252 3.939-17.773 4.072-17.289 5.799-11.032 8.229-2.562 9.027-.374 9.134-.08 9.249 .044 9.694 .044H15.163C17.827 .044 20.653-.06 21.416-.847 21.698-1.137 21.805-1.642 21.777-2.584 21.69-5.31 21.281-7.802 21.11-8.748L21.063-9.009C20.977-9.48 21.339-9.913 21.818-9.913H24.149C24.489-9.913 24.789-9.689 24.885-9.363L24.933-9.202C24.985-9.015 25.069-8.729 25.172-8.359 25.796-6.145 27.255-.962 28.936 3.494 29.124 3.996 28.753 4.531 28.217 4.531 24.415 4.531 20.614 4.531 16.812 4.531 3.644 4.531-9.523 4.531-22.691 4.531-23.021 4.531-23.315 4.32-23.419 4.007" fill="currentColor"/>
<path transform="matrix(1,0,0,-1,87.787,77.658298)" d="M0 0V-.004H.564C.39-.004 .199-.004 0 0" fill="currentColor"/>
<path transform="matrix(1,0,0,-1,89.0039,3.9997025)" d="M0 0C-46.871 0-85.004-21.857-85.004-48.724-85.004-75.59-46.871-97.446 0-97.446 46.871-97.446 85.003-75.59 85.003-48.724 85.003-21.857 46.871 0 0 0M0-101.446C-49.077-101.446-89.004-77.795-89.004-48.724-89.004-19.651-49.077 4 0 4 49.076 4 89.003-19.651 89.003-48.724 89.003-77.795 49.076-101.446 0-101.446" fill="currentColor"/>
</g>
</g>
</g>
</svg>
