<svg xmlns="http://www.w3.org/2000/svg" xmlns:xlink="http://www.w3.org/1999/xlink" xmlns:inkscape="http://www.inkscape.org/namespaces/inkscape" version="1.1" viewBox="0 0 218.225 97.309">
<defs>
<clipPath id="clip_1">
<path transform="matrix(1,0,0,-1,0,97.309)" d="M0 97.309H218.225V0H0Z"/>
</clipPath>
</defs>
<g>
<g inkscape:groupmode="layer" inkscape:label="Merch">
</g>
<g inkscape:groupmode="layer" inkscape:label="Working Layer">
<g clip-path="url(#clip_1)">
<path transform="matrix(1,0,0,-1,52.3695,.01839447)" d="M0 0C.44 0 .761-.415 .651-.841L-.094-3.713-.774-3.738C-4.487-3.873-4.646-4.271-5.229-5.754-6.528-8.996-7.637-13.077-9.849-21.202L-10.327-22.961C-12.429-30.467-14.102-36.546-14.96-40.756-15.137-41.559-15.058-41.742-15.027-41.785-14.69-42.226-11.981-42.349-10.823-42.398L-10.487-42.413C-10.032-42.433-9.728-42.89-9.886-43.317L-10.927-46.136H-11.571C-12.478-46.136-13.783-46.093-15.168-46.044-16.835-45.989-18.722-45.928-20.285-45.928-22.386-45.928-24.47-46.001-26.314-46.069-27.001-46.093-27.656-46.118-28.275-46.136L-28.616-46.146C-29.073-46.159-29.41-45.722-29.28-45.283L-28.441-42.447-27.803-42.404C-23.967-42.128-23.741-41.859-23.14-39.824-21.6-34.649-19.924-28.736-18.897-25.054-18.779-24.633-19.087-24.217-19.525-24.206-21.369-24.161-23.787-24.125-26.124-24.125-28.762-24.125-31.16-24.17-32.73-24.223-33.024-24.233-33.273-24.43-33.352-24.713-35.024-30.691-36.69-37.009-37.675-41.075-37.696-41.175-37.712-41.263-37.724-41.34-37.778-41.688-37.552-42.012-37.209-42.091-36.387-42.282-34.851-42.361-34.09-42.398L-33.788-42.415C-33.365-42.438-33.068-42.843-33.174-43.254L-33.919-46.136H-34.63C-36.057-46.136-37.7-46.081-39.287-46.026-40.806-45.977-42.24-45.928-43.423-45.928-44.924-45.928-46.377-45.983-47.786-46.038-49.054-46.087-50.249-46.136-51.365-46.136H-51.697C-52.146-46.136-52.469-45.704-52.341-45.273L-51.499-42.423-50.838-42.398C-46.806-42.257-46.45-41.73-46.046-40.554-44.777-36.914-43.307-31.76-41.603-25.798L-40.506-21.968C-39.991-20.154-39.507-18.494-39.072-16.968-37.479-11.441-36.425-7.782-35.88-5.227-35.739-4.535-35.812-4.345-35.849-4.296-36.204-3.836-38.772-3.713-39.74-3.664L-40.066-3.65C-40.515-3.63-40.818-3.183-40.671-2.758L-39.716 0H-39.06C-38.239 0-37.197-.043-35.996-.086-34.507-.147-32.822-.208-31.186-.208-30.169-.208-28.876-.165-27.503-.116-25.965-.055-24.378 0-22.962 0H-22.642C-22.202 0-21.881-.415-21.991-.841L-22.736-3.72-23.434-3.738C-27.056-3.805-27.24-4.308-27.718-5.656-28.928-9.043-30.477-14.448-31.802-19.247-31.919-19.672-31.602-20.089-31.161-20.094-29.693-20.111-27.731-20.111-25.701-20.111-22.919-20.111-20.058-20.111-17.967-20.068-17.672-20.062-17.417-19.862-17.337-19.578L-17.123-18.818C-15.799-14.137-13.991-7.721-13.385-4.81-13.293-4.289-13.354-4.167-13.36-4.155-13.464-4.02-14.04-3.781-16.718-3.738L-17.055-3.731C-17.508-3.722-17.823-3.277-17.679-2.847L-16.724 .018-16.05 0C-14.812-.031-13.587-.067-12.441-.104-10.756-.165-9.304-.208-8.194-.208-6.834-.208-5.026-.147-3.433-.086-2.134-.043-1.019 0-.32 0Z" fill="currentColor"/>
<path transform="matrix(1,0,0,-1,53.0358,41.644399)" d="M0 0C-1.238 0-1.336 2.096-1.336 2.739-1.336 8.475 1.661 16.416 5.631 21.214 7.439 23.426 9.204 24.462 11.177 24.462 12.807 24.462 13.702 23.341 13.702 21.3 13.702 18.953 10.534 11.018 8.836 8.193 5.742 2.911 2.604 0 0 0M21.689 6.24C21.357 6.554 20.817 6.454 20.62 6.042L20.473 5.736C19.324 3.335 17.788 1.447 16.576 .533 16.093 .169 15.406 .598 15.518 1.192 15.519 1.199 15.52 1.206 15.522 1.213 16.79 7.2 20.35 19.119 22.875 26.484L22.988 26.814C23.137 27.25 22.813 27.704 22.352 27.704H16.481C16.187 27.704 15.928 27.513 15.84 27.232L15.699 26.784C14.523 27.912 12.789 28.549 10.754 28.549 8.046 28.549 5.674 27.765 3.082 26.012-3.658 21.656-9.149 11.122-9.149 2.525-9.149-2.439-6.894-5.282-2.954-5.282 1.152-5.282 4.646-2.847 7.153-.337 7.57 .08 8.278-.206 8.292-.796 8.318-1.931 8.569-3.017 9.21-3.854 9.706-4.504 10.675-5.282 12.446-5.282 18.445-5.282 22.195 .925 23.531 3.591L23.837 4.204Z" fill="currentColor"/>
<path transform="matrix(1,0,0,-1,128.5484,17.458)" d="M0 0C-.086-2.102-.815-4.228-2.304-6.728-6.293-13.512-19.07-28.574-19.198-28.721L-19.456-29.027-19.854-29.046C-21.196-29.119-22.771-29.419-23.849-29.658L-24.168-29.729C-24.604-29.826-25.011-29.478-24.984-29.032L-24.965-28.709C-24.34-18.144-23.635-6.177-23.776-1.507-23.776-1.403-23.776-1.33-23.782-1.281-23.813-1.275-23.855-1.275-23.911-1.275L-26.025-1.319C-26.314-1.325-26.576-1.513-26.652-1.791-27.31-4.185-29.304-5.282-30.798-5.282-31.65-5.282-32.79-4.957-33.347-3.413L-33.372-3.352C-33.58-2.61-33.691-2.61-33.893-2.61-35.155-2.61-38.127-6.606-40.921-13.297-42.711-17.556-44.359-22.33-45.946-27.888L-46.124-28.513-46.773-28.555C-48.795-28.672-50.726-28.856-52.687-29.107L-53.083-29.159C-53.581-29.225-53.972-28.743-53.806-28.27L-53.673-27.894C-50.573-19.119-46.853-6.336-46.265-1.305-46.259-1.232-46.259-1.177-46.265-1.134H-50.416C-50.884-1.134-51.209-.667-51.047-.228L-50.015 2.561-49.421 2.604C-46.387 2.8-42.11 3.407-39.383 4.314L-39.011 4.439C-38.54 4.596-38.067 4.207-38.131 3.714L-38.182 3.321C-38.269 2.662-38.424 1.842-38.621 .926-38.769 .235-37.886-.184-37.442 .365-35.197 3.139-33.017 4.363-30.59 4.363-28.825 4.363-27.655 3.487-27.024 2.31L-26.864 2.322C-22.624 2.666-19.186 3.223-16.643 3.971L-16.247 4.089C-15.758 4.234-15.291 3.803-15.398 3.303L-15.485 2.898C-16.208-.472-16.68-5.368-17.017-12.979-17.111-14.557-17.225-16.495-17.309-18.366-17.337-19.014-16.52-19.324-16.113-18.82-11.292-12.844-7.063-5.854-6.9-1.373-6.832-.074-6.955 .895-7.096 1.746L-7.212 2.439-6.575 2.733C-4.21 3.811-2.69 4.363-2.041 4.363-.613 4.363 0 1.471 0 0" fill="currentColor"/>
<path transform="matrix(1,0,0,-1,143.874,17.041398)" d="M0 0C.484 0 1.961 0 1.961-2.954 1.961-5.356 .821-7.212-1.33-8.315-2.535-8.921-4.977-9.731-7.28-10.272-7.801-10.394-8.248-9.882-8.064-9.379-5.559-2.516-2.244 0 0 0M3.75-10.822C7.047-9.32 8.861-6.851 8.861-3.867 8.861 1.054 5.913 3.873 .772 3.873-2.488 3.873-5.65 2.739-8.383 .576-13.971-3.903-17.728-11.992-17.728-19.548-17.728-26.117-14.394-29.885-8.579-29.885-2.672-29.885 2.898-26.705 6.324-21.38L6.489-21.122 6.242-17.284C6.219-16.93 5.926-16.655 5.571-16.655H3.671L3.438-17.225C1.354-22.299-1.992-25.093-5.981-25.093-8.591-25.093-9.915-23.132-9.915-19.266-9.915-17.948-9.716-16.451-9.5-15.188-9.452-14.909-9.237-14.696-8.958-14.647-4.875-13.928 .663-12.398 3.75-10.822" fill="currentColor"/>
<path transform="matrix(1,0,0,-1,176.6759,14.240997)" d="M0 0-.319-.76C-1.275-3.045-3.015-7.433-3.928-11.171L-4.099-11.876H-6.739C-7.162-11.876-7.48-11.49-7.399-11.074L-7.341-10.779C-6.722-7.611-6.967-5.239-8.046-3.934-8.701-3.137-9.7-2.733-11.012-2.733-13.616-2.733-14.805-4.847-14.805-6.808-14.805-8.236-14.388-9.161-13.261-10.215-12.378-11.055-10.822-12.36-9.449-13.512-8.652-14.18-7.899-14.817-7.31-15.326-5.435-16.986-4.185-18.776-4.185-22.134-4.271-25.957-6.244-28.408-7.886-29.799-10.141-31.662-13.322-32.686-16.845-32.686-20.234-32.686-24.107-31.546-26.711-29.787L-27.336-29.364-27.042-28.666C-26.398-27.146-25.375-23.978-23.917-18.99L-23.745-18.414-21.033-18.085C-20.565-18.028-20.185-18.458-20.299-18.915L-20.387-19.266C-20.657-20.363-20.994-22.354-21.061-23.659-21.092-25.24-20.681-26.496-19.836-27.361-18.935-28.274-17.55-28.739-15.724-28.739-13.653-28.739-11.22-27.704-11.159-24.787-11.159-23.396-11.545-22.556-12.697-21.466-13.959-20.271-16.128-18.249-17.893-16.625-20.338-14.615-21.49-12.311-21.49-9.406-21.49-6.201-20.234-3.456-17.856-1.458-15.816 .288-13.346 1.146-10.307 1.146-8.216 1.146-6.296 .491-4.978-.34-4.678-.53-4.285-.452-4.078-.163L-3.191 1.077C-2.992 1.354-2.619 1.439-2.32 1.275Z" fill="currentColor"/>
<path transform="matrix(1,0,0,-1,181.4678,40.9459)" d="M0 0C-.239-1.029-.098-1.25-.092-1.262-.092-1.262 .012-1.33 .368-1.33 2.696-1.33 5.809 2.237 7.261 5.57L7.5 6.122C7.74 6.675 8.53 6.658 8.745 6.095L10.019 2.764 9.841 2.402C6.961-3.358 1.526-5.981-2.304-5.981-4.436-5.981-5.95-5.399-6.808-4.247-8.138-2.469-7.605 .165-6.912 2.512-6.214 4.859-5.399 7.562-4.571 10.295-3.351 14.35-2.095 18.524-1.181 21.639-1.063 22.041-1.338 22.45-1.755 22.495L-4.779 22.819C-5.233 22.868-5.507 23.346-5.321 23.762L-4.204 26.258C-4.096 26.5-3.855 26.656-3.59 26.656H-.16C.132 26.656 .393 26.848 .482 27.126 1.483 30.266 2.212 32.9 2.574 34.267L2.727 34.836 3.303 34.934C5.631 35.351 7.874 35.768 9.633 36.375L10.151 36.555C10.701 36.747 11.219 36.196 10.992 35.659L10.779 35.155C10.345 34.125 9.177 30.869 8.091 27.538 7.95 27.103 8.273 26.656 8.73 26.656H14.203C14.707 26.656 15.032 26.122 14.8 25.675L13.495 23.149C13.387 22.941 13.179 22.804 12.946 22.787L6.975 22.362C6.702 22.342 6.47 22.161 6.384 21.902 4.784 17.042 1.124 4.845 0 0" fill="currentColor"/>
<path transform="matrix(1,0,0,-1,69.6075,49.807199)" d="M0 0C.496 .051 .874-.437 .699-.904L.559-1.279C-.986-5.36-2.334-10.14-2.91-12.18-3.014-12.554-3.094-12.842-3.149-13.026L-3.345-13.688H-6.084C-6.504-13.688-6.822-13.306-6.744-12.892L-6.691-12.603C-6.537-11.733-6.157-9.447-6.072-6.898-6.053-6.028-6.145-5.562-6.409-5.299-7.113-4.576-9.724-4.478-12.187-4.478H-17.249C-17.653-4.478-17.757-4.576-17.861-4.858-18.604-6.885-20.862-14.753-22.456-20.548-22.573-20.973-22.26-21.391-21.819-21.397-20.993-21.409-19.965-21.409-18.866-21.409-14.179-21.409-13.321-20.833-11.194-16.249L-10.925-15.667-8.265-15.887C-7.818-15.924-7.532-16.38-7.693-16.799L-7.812-17.107C-9.154-20.594-11.63-29.583-12.052-32.181L-12.175-32.953H-14.931C-15.34-32.953-15.654-32.592-15.597-32.188L-15.557-31.906C-15.171-29.185-14.932-27.04-15.656-26.207-16.164-25.619-17.347-25.361-19.498-25.361-21.057-25.361-22.401-25.361-23.292-25.393-23.582-25.403-23.827-25.596-23.907-25.875-25.099-30.025-26.964-36.733-28.021-41.581-28.101-41.918-28.101-42.084-28.095-42.145-28.046-42.17-27.942-42.2-27.739-42.231-26.833-42.36-24.394-42.648-22.831-42.715L-22.517-42.73C-22.081-42.75-21.78-43.174-21.904-43.592L-22.751-46.453H-23.438C-24.706-46.453-26.422-46.398-28.083-46.349-29.762-46.294-31.496-46.245-32.789-46.245-34.492-46.245-36.496-46.306-38.261-46.367-39.713-46.41-40.969-46.453-41.858-46.453H-42.19C-42.639-46.453-42.962-46.021-42.835-45.59L-42.133-43.215C-42.055-42.953-41.828-42.764-41.557-42.736L-38.016-42.372C-37.354-42.268-37.005-42.127-36.668-41.263-35.289-37.5-33.567-31.464-31.575-24.473L-30.932-22.218C-28.383-13.375-26.882-7.946-26.238-4.576L-26.22-4.508C-26.22-4.496-26.214-4.49-26.214-4.478-26.232-4.478-26.257-4.472-26.281-4.472L-30.88-4.018C-31.318-3.975-31.597-3.528-31.444-3.115L-30.405-.317H-29.768C-28.567-.317-26.949-.36-25.239-.415-23.291-.47-21.275-.525-19.571-.525H-12.255C-7.426-.525-3.657-.372-.397-.041Z" fill="currentColor"/>
<path transform="matrix(1,0,0,-1,78.0893,67.147098)" d="M0 0C.49 0 1.967 0 1.967-2.954 1.967-5.356 .827-7.212-1.324-8.315-2.529-8.921-4.971-9.731-7.274-10.272-7.795-10.394-8.242-9.882-8.058-9.379-5.553-2.516-2.238 0 0 0M3.756-10.822C7.053-9.32 8.867-6.851 8.867-3.867 8.867 1.054 5.919 3.873 .778 3.873-2.482 3.873-5.644 2.739-8.377 .576-13.965-3.909-17.722-11.992-17.722-19.548-17.722-26.117-14.388-29.885-8.579-29.885-2.666-29.885 2.905-26.705 6.33-21.38L6.495-21.122 6.248-17.284C6.225-16.93 5.932-16.655 5.577-16.655H3.677L3.444-17.225C1.36-22.299-1.985-25.093-5.975-25.093-8.585-25.093-9.909-23.132-9.909-19.266-9.909-17.948-9.71-16.451-9.494-15.188-9.446-14.909-9.231-14.696-8.952-14.647-4.869-13.928 .669-12.398 3.756-10.822" fill="currentColor"/>
<path transform="matrix(1,0,0,-1,110.8974,64.3466)" d="M0 0-.319-.76C-1.275-3.045-3.015-7.433-3.934-11.171L-4.106-11.876H-6.739C-7.162-11.876-7.48-11.49-7.399-11.074L-7.341-10.779C-6.722-7.611-6.967-5.239-8.046-3.934-8.701-3.137-9.7-2.733-11.012-2.733-13.616-2.733-14.805-4.847-14.805-6.808-14.805-8.236-14.388-9.161-13.267-10.215-12.378-11.055-10.822-12.36-9.449-13.512-8.652-14.18-7.899-14.817-7.317-15.326-5.435-16.986-4.185-18.776-4.185-22.134-4.271-25.957-6.244-28.408-7.886-29.799-10.141-31.662-13.322-32.686-16.845-32.686-20.234-32.686-24.107-31.546-26.711-29.787L-27.342-29.364-27.048-28.666C-26.405-27.152-25.381-23.984-23.917-18.99L-23.745-18.414-21.033-18.085C-20.565-18.028-20.185-18.458-20.299-18.915L-20.387-19.266C-20.663-20.363-21-22.354-21.061-23.659-21.092-25.24-20.681-26.497-19.836-27.361-18.935-28.274-17.556-28.739-15.724-28.739-13.659-28.739-11.22-27.704-11.159-24.787-11.159-23.396-11.545-22.556-12.697-21.466-13.977-20.258-16.171-18.206-17.893-16.625-20.338-14.615-21.496-12.311-21.496-9.406-21.496-6.201-20.24-3.456-17.862-1.458-15.816 .288-13.346 1.146-10.307 1.146-8.217 1.146-6.297 .491-4.979-.339-4.678-.529-4.285-.452-4.078-.162L-3.196 1.076C-2.998 1.354-2.624 1.439-2.326 1.275Z" fill="currentColor"/>
<path transform="matrix(1,0,0,-1,138.7449,85.6047)" d="M0 0C.214 .42 .783 .495 1.098 .144L3.03-2.003 2.736-2.567C-.144-8.112-4.525-11.428-8.98-11.428-10.494-11.428-11.615-10.956-12.307-10.012-13.368-8.578-13.331-6.262-12.179-2.505-11.523-.385-10.696 2.195-9.813 4.928-8.534 8.911-7.214 13.012-6.304 16.117-6.604 16.515-6.653 16.58-6.953 16.978-7.855 16.973-8.999 16.956-9.991 16.907L-11.098 16.858-16.041 16.881C-16.333 16.882-16.592 16.697-16.683 16.42-18.288 11.532-21.935-.619-23.056-5.447-23.295-6.476-23.16-6.697-23.154-6.709-23.147-6.709-23.043-6.777-22.688-6.777-20.359-6.777-17.246-3.21-15.794 .123L-15.555 .675C-15.316 1.228-14.526 1.211-14.31 .648L-13.037-2.683-13.214-3.045C-16.094-8.805-21.53-11.428-25.36-11.428-27.492-11.428-29.006-10.845-29.87-9.693-31.193-7.916-30.66-5.281-29.968-2.934-29.269-.581-28.448 2.133-27.621 4.866-26.401 8.915-25.15 13.079-24.237 16.192-24.119 16.594-24.394 17.003-24.811 17.048L-27.835 17.372C-28.289 17.421-28.563 17.899-28.377 18.315L-27.26 20.811C-27.151 21.053-26.911 21.209-26.646 21.209H-23.217C-22.924 21.209-22.663 21.401-22.574 21.681-21.579 24.82-20.85 27.454-20.482 28.82L-20.329 29.39-19.753 29.488C-17.424 29.904-15.188 30.321-13.429 30.928L-12.905 31.11C-12.356 31.302-11.839 30.753-12.064 30.216L-12.277 29.708C-12.71 28.678-13.884 25.422-14.966 22.09-15.107 21.655-14.784 21.209-14.326 21.209H-7.748C-3.392 21.613-.456 21.748 1.584 22.361L2.203 22.551 3.122 21.319 2.902 20.823C.953 16.521-3.998 .632-5.555-5.465-5.653-5.839-5.683-6.09-5.696-6.25-4.347-5.937-1.743-3.406-.162-.318Z" fill="currentColor"/>
<path transform="matrix(1,0,0,-1,143.6933,54.4074)" d="M0 0C-.165-2.782-2.175-4.798-4.786-4.798-5.84-4.798-6.783-4.412-7.457-3.72-8.193-2.96-8.56-1.887-8.518-.613-8.346 2.457-5.95 4.283-3.732 4.283-2.574 4.283-1.612 3.91-.95 3.199-.239 2.439 .092 1.336 0 0" fill="currentColor"/>
<path transform="matrix(1,0,0,-1,169.5708,67.5637)" d="M0 0C-.086-2.102-.821-4.228-2.31-6.728-6.293-13.512-19.076-28.574-19.204-28.721L-19.462-29.027-19.86-29.046C-21.202-29.119-22.771-29.419-23.855-29.658L-24.174-29.729C-24.61-29.826-25.017-29.478-24.99-29.032L-24.971-28.709C-24.346-18.15-23.635-6.195-23.776-1.507-23.776-1.403-23.782-1.33-23.782-1.281-23.819-1.275-23.862-1.275-23.911-1.275L-27.85-1.353C-28.327-1.362-28.662-.885-28.49-.439L-27.446 2.273-26.87 2.322C-22.63 2.666-19.192 3.223-16.649 3.971L-16.253 4.089C-15.764 4.234-15.297 3.803-15.404 3.303L-15.491 2.898C-16.214-.472-16.686-5.368-17.017-12.979-17.116-14.556-17.228-16.492-17.312-18.362-17.341-19.01-16.523-19.321-16.116-18.816-11.296-12.842-7.069-5.853-6.9-1.373-6.839-.074-6.961 .895-7.102 1.746L-7.219 2.439-6.575 2.733C-4.216 3.811-2.69 4.363-2.047 4.363-.619 4.363 0 1.471 0 0" fill="currentColor"/>
<path transform="matrix(1,0,0,-1,198.7697,87.105197)" d="M0 0C-.092-.319-.19-.637-.282-.962-.429-1.507-.57-2.059-.692-2.617-.343-2.028-.061-1.495 .159-1.054L.466-.441Z" fill="currentColor"/>
<path transform="matrix(1,0,0,-1,189.1062,70.4499)" d="M0 0C0-2.347-3.174-10.282-4.872-13.107-7.96-18.389-11.104-21.3-13.708-21.3-14.946-21.3-15.038-19.205-15.038-18.561-15.038-12.825-12.047-4.884-8.076-.086-6.269 2.126-4.504 3.162-2.531 3.162-.901 3.162 0 2.041 0 0M7.981-15.06C7.65-14.746 7.109-14.846 6.912-15.258L6.765-15.565C5.62-17.968 4.083-19.857 2.867-20.771 2.386-21.132 1.703-20.708 1.809-20.116 1.81-20.106 1.812-20.097 1.814-20.087 3.082-14.1 6.643-2.188 9.167 5.184L9.28 5.514C9.429 5.95 9.105 6.403 8.644 6.403H2.773C2.48 6.403 2.22 6.213 2.132 5.932L1.992 5.484C.815 6.612-.919 7.249-2.947 7.249-5.656 7.249-8.027 6.465-10.619 4.712-17.366 .355-22.857-10.178-22.857-18.776-22.857-23.739-20.595-26.582-16.661-26.582-12.551-26.582-9.061-24.148-6.555-21.638-6.138-21.22-5.43-21.507-5.416-22.097-5.389-23.231-5.139-24.317-4.498-25.155-4.001-25.804-3.033-26.582-1.262-26.582 3.7-26.582 7.124-22.337 8.917-19.362 8.954-19.301 8.979-19.236 8.995-19.166 9.111-18.645 9.244-18.128 9.382-17.617 9.436-17.426 9.492-17.238 9.548-17.05 9.619-16.808 9.548-16.546 9.365-16.372Z" fill="currentColor"/>
<path transform="matrix(1,0,0,-1,198.7697,87.105197)" d="M0 0C-.092-.319-.19-.637-.282-.962-.429-1.507-.57-2.059-.692-2.617-.343-2.028-.061-1.495 .159-1.054L.466-.441Z" fill="currentColor"/>
<path transform="matrix(1,0,0,-1,205.1916,90.9718)" d="M0 0C-.086-.38-.098-.619-.098-.76 1.121-.539 3.769 1.746 5.454 5.111L5.613 5.429C5.822 5.846 6.381 5.929 6.702 5.591L8.726 3.456 8.432 2.874C5.607-2.635 1.085-6.06-3.358-6.06-4.835-6.06-5.944-5.595-6.649-4.669-7.734-3.246-7.609-1.058-7.138 1.143-7.122 1.214-7.094 1.284-7.057 1.347-6.734 1.897-6.471 2.396-6.263 2.813L-5.956 3.425-6.422 3.867C-5.638 6.526-4.853 9.1-4.026 11.808-3.144 14.682-2.194 17.801-1.072 21.557 2.114 32.404 3.144 36.252 3.762 38.942 3.769 38.967 3.775 38.991 3.781 39.009L-.477 39.085C-.934 39.093-1.25 39.545-1.101 39.977L-.147 42.735 .496 42.747C4.774 42.815 9.296 43.28 11.741 43.912L12.193 44.028C12.717 44.163 13.178 43.654 12.991 43.145L12.832 42.711C10.907 37.435 8.64 30.308 6.103 21.533 2.709 10.019 .748 3.34 0 0" fill="currentColor"/>
</g>
</g>
</g>
</svg>
