<svg xmlns="http://www.w3.org/2000/svg" xmlns:xlink="http://www.w3.org/1999/xlink" xmlns:inkscape="http://www.inkscape.org/namespaces/inkscape" version="1.1" viewBox="0 0 87.2778 130.124">
<g>
<g inkscape:groupmode="layer" inkscape:label="Merch">
</g>
<g inkscape:groupmode="layer" inkscape:label="Working Layer">
<path transform="matrix(1,0,0,-1,43.4637,.00019836426)" d="M0 0-1.975-6.077H-8.365L-3.195-9.833-5.17-15.911 0-12.154 5.171-15.911 3.196-9.833 8.366-6.077H1.975Z" fill="currentColor"/>
<path transform="matrix(1,0,0,-1,43.4641,14.276489)" d="M0 0 1.975-6.078H8.365L3.195-9.834 5.17-15.911 0-12.155-5.17-15.911-3.195-9.834-8.365-6.078H-1.975Z" fill="currentColor"/>
<path transform="matrix(1,0,0,-1,43.4641,28.553093)" d="M0 0 1.975-6.078H8.365L3.195-9.834 5.17-15.911 0-12.155-5.17-15.911-3.195-9.834-8.365-6.078H-1.975Z" fill="currentColor"/>
<path transform="matrix(1,0,0,-1,43.6389,42.783998)" d="M0 0 1.975-6.078H8.365L3.195-9.834 5.17-15.911 0-12.155-5.17-15.911-3.195-9.834-8.365-6.078H-1.975Z" fill="currentColor"/>
<path transform="matrix(1,0,0,-1,43.4641,57.10639)" d="M0 0 1.975-6.078H8.365L3.195-9.834 5.17-15.911 0-12.155-5.17-15.911-3.195-9.834-8.365-6.078H-1.975Z" fill="currentColor"/>
<path transform="matrix(1,0,0,-1,43.4641,71.382999)" d="M0 0 1.975-6.078H8.365L3.195-9.834 5.17-15.911 0-12.155-5.17-15.911-3.195-9.834-8.365-6.078H-1.975Z" fill="currentColor"/>
<path transform="matrix(1,0,0,-1,43.4641,85.65959)" d="M0 0 1.975-6.078H8.365L3.195-9.834 5.17-15.911 0-12.155-5.17-15.911-3.195-9.834-8.365-6.078H-1.975Z" fill="currentColor"/>
<path transform="matrix(1,0,0,-1,43.4641,99.936199)" d="M0 0 1.975-6.078H8.365L3.195-9.834 5.17-15.911 0-12.155-5.17-15.911-3.195-9.834-8.365-6.078H-1.975Z" fill="currentColor"/>
<path transform="matrix(1,0,0,-1,41.4891,120.290599)" d="M0 0H-6.39L-1.22-3.756-3.195-9.833 1.975-6.078 7.145-9.833 5.171-3.756 10.34 0H3.95L1.975 6.078Z" fill="currentColor"/>
<path transform="matrix(1,0,0,-1,61.2758,42.783998)" d="M0 0 1.975-6.078H8.365L3.195-9.834 5.17-15.911 0-12.155-5.17-15.911-3.195-9.834-8.365-6.078H-1.975Z" fill="currentColor"/>
<path transform="matrix(1,0,0,-1,26.0019,42.783998)" d="M0 0 1.975-6.078H8.365L3.195-9.834 5.17-15.911 0-12.155-5.17-15.911-3.195-9.834-8.365-6.078H-1.975Z" fill="currentColor"/>
<path transform="matrix(1,0,0,-1,6.39,48.86119)" d="M0 0H-6.39L-1.22-3.757-3.195-9.834 1.975-6.078 7.145-9.834 5.171-3.757 10.34 0H3.95L1.975 6.077Z" fill="currentColor"/>
<path transform="matrix(1,0,0,-1,76.9383,48.86119)" d="M0 0H-6.391L-1.22-3.757-3.195-9.834 1.975-6.078 7.144-9.834 5.17-3.757 10.339 0H3.949L1.975 6.077Z" fill="currentColor"/>
</g>
</g>
</svg>
