<svg xmlns="http://www.w3.org/2000/svg" xmlns:xlink="http://www.w3.org/1999/xlink" xmlns:inkscape="http://www.inkscape.org/namespaces/inkscape" version="1.1" viewBox="0 0 165.458 164.057">
<defs>
<clipPath id="clip_1">
<path transform="matrix(1,0,0,-1,0,164.057)" d="M0 164.057H165.458V0H0Z"/>
</clipPath>
</defs>
<g>
<g inkscape:groupmode="layer" inkscape:label="Merch">
</g>
<g inkscape:groupmode="layer" inkscape:label="Working Layer">
<path transform="matrix(1,0,0,-1,82.7289,-.00039672853)" d="M0 0-2.101-6.466H-8.898L-3.398-10.461-5.499-16.926 0-12.93 5.5-16.926 3.399-10.461 8.899-6.466H2.101Z" fill="currentColor"/>
<path transform="matrix(1,0,0,-1,154.4589,80.29581)" d="M0 0H-6.798L-1.298-3.995-3.398-10.461 2.101-6.465 7.601-10.461 5.5-3.995 11 0H4.201L2.101 6.466Z" fill="currentColor"/>
<path transform="matrix(1,0,0,-1,6.7977,81.18861)" d="M0 0H-6.798L-1.298-3.996-3.398-10.462 2.101-6.466 7.6-10.462 5.5-3.996 11 0H4.201L2.101 6.465Z" fill="currentColor"/>
<path transform="matrix(1,0,0,-1,17.7971,37.524209)" d="M0 0 2.101-6.465H8.899L3.399-10.461 5.5-16.926 0-12.93-5.5-16.926-3.399-10.461-8.899-6.465H-2.101Z" fill="currentColor"/>
<path transform="matrix(1,0,0,-1,120.42,10.249603)" d="M0 0 2.101-6.465H8.899L3.399-10.461 5.5-16.926 0-12.93-5.5-16.926-3.399-10.461-8.899-6.465H-2.101Z" fill="currentColor"/>
<path transform="matrix(1,0,0,-1,147.6613,37.85421)" d="M0 0 2.101-6.465H8.899L3.399-10.461 5.5-16.926 0-12.93-5.5-16.926-3.399-10.461-8.899-6.465H-2.101Z" fill="currentColor"/>
<path transform="matrix(1,0,0,-1,147.6613,109.806209)" d="M0 0 2.101-6.465H8.899L3.399-10.461 5.5-16.926 0-12.93-5.5-16.926-3.399-10.461-8.899-6.465H-2.101Z" fill="currentColor"/>
<path transform="matrix(1,0,0,-1,17.7971,109.806209)" d="M0 0 2.101-6.465H8.899L3.399-10.461 5.5-16.926 0-12.93-5.5-16.926-3.399-10.461-8.899-6.465H-2.101Z" fill="currentColor"/>
<path transform="matrix(1,0,0,-1,45.0384,137.2151)" d="M0 0 2.101-6.465H8.899L3.399-10.461 5.5-16.926 0-12.93-5.5-16.926-3.399-10.461-8.899-6.465H-2.101Z" fill="currentColor"/>
<path transform="matrix(1,0,0,-1,120.42,138.1085)" d="M0 0 2.101-6.465H8.899L3.399-10.461 5.5-16.926 0-12.93-5.5-16.926-3.399-10.461-8.899-6.465H-2.101Z" fill="currentColor"/>
<path transform="matrix(1,0,0,-1,45.0384,9.35611)" d="M0 0 2.101-6.465H8.899L3.399-10.461 5.5-16.926 0-12.93-5.5-16.926-3.399-10.461-8.899-6.465H-2.101Z" fill="currentColor"/>
<path transform="matrix(1,0,0,-1,81.6633,153.59632)" d="M0 0H-6.798L-1.299-3.995-3.399-10.461 2.101-6.465 7.6-10.461 5.499-3.995 10.999 0H4.201L2.101 6.466Z" fill="currentColor"/>
<path transform="matrix(1,0,0,-1,78.6429,65.6582)" d="M0 0H.544L.004 .012Z" fill="currentColor"/>
<g clip-path="url(#clip_1)">
<path transform="matrix(1,0,0,-1,95.8237,69.00761)" d="M0 0-.012-.053C-.535-2.765-1.733-7.098-3.763-14.149L-4.292-16C-5.879-21.561-7.248-26.367-8.349-29.364-8.617-30.051-8.89-30.166-9.445-30.251L-12.192-30.539-12.465-30.527C-13.388-30.489-15.55-30.392-15.826-30.034-15.85-30.004-15.914-29.854-15.767-29.214-15.089-25.862-13.752-21.003-12.072-14.989L-11.696-13.614C-9.924-7.107-9.034-3.84-7.994-1.246-7.541-.088-7.403 .261-4.436 .37L-3.893 .391-3.887 .414-.05 .038C-.029 .035-.009 .032 .006 .029 .006 .021 .003 .012 0 0M-17.31 2.961-17.924 1.122C-18.045 .759-17.78 .383-17.397 .375L-17.175 .37C-16.001 .349-15.332 .283-14.952 .21-14.652 .153-14.451-.126-14.497-.428-14.5-.448-14.503-.469-14.507-.491-14.989-2.814-16.434-7.935-17.489-11.672L-17.66-12.273C-17.728-12.513-17.943-12.681-18.193-12.686-19.86-12.718-22.134-12.718-24.349-12.718-25.955-12.718-27.507-12.718-28.679-12.705-29.051-12.701-29.318-12.347-29.218-11.987-28.114-8.003-26.922-3.846-25.968-1.169-25.58-.091-25.436 .311-22.539 .37L-22.416 .373C-22.162 .378-21.943 .551-21.879 .797L-21.399 2.639C-21.306 2.998-21.577 3.349-21.948 3.349H-35.141C-35.383 3.349-35.598 3.196-35.677 2.967L-36.292 1.191C-36.416 .833-36.161 .456-35.782 .439L-35.566 .429C-34.793 .391-32.739 .291-32.454-.076-32.425-.115-32.366-.267-32.481-.826-32.916-2.867-33.756-5.782-35.025-10.191-35.378-11.414-35.762-12.747-36.177-14.202-36.462-15.195-36.738-16.167-37.008-17.11-38.386-21.94-39.576-26.112-40.601-29.052-40.927-29.993-41.209-30.416-44.432-30.527L-44.552-30.532C-44.794-30.541-45.004-30.705-45.073-30.938L-45.52-32.446C-45.628-32.809-45.356-33.174-44.976-33.174H-31.274C-31.016-33.174-30.79-33-30.725-32.75L-30.335-31.249C-30.245-30.901-30.497-30.558-30.857-30.54L-31.053-30.53C-31.655-30.499-32.859-30.437-33.522-30.288-33.813-30.222-34.005-29.942-33.955-29.648-33.946-29.594-33.935-29.534-33.92-29.467-33.137-26.226-31.806-21.186-30.474-16.411-30.408-16.172-30.197-16.005-29.949-15.997-28.694-15.956-26.788-15.923-24.687-15.923-22.831-15.923-20.917-15.949-19.451-15.983-19.082-15.992-18.821-16.346-18.92-16.702-19.718-19.563-21.036-24.208-22.301-28.465-22.783-30.092-22.962-30.31-26.032-30.53L-26.538-30.565-27.094-32.446C-27.202-32.809-26.93-33.174-26.55-33.174H2.441C2.692-33.174 2.913-33.009 2.985-32.768L3.431-31.265C3.536-30.912 3.282-30.554 2.914-30.537L2.703-30.527C1.49-30.474-.482-30.245-1.216-30.142-1.384-30.119-1.466-30.089-1.501-30.072-1.507-30.022-1.513-29.89-1.448-29.616-.601-25.741 .884-20.403 1.836-17.088 1.904-16.852 2.115-16.687 2.361-16.679 3.057-16.655 4.1-16.655 5.367-16.655 7.086-16.655 8.035-16.863 8.44-17.33 9.022-18 8.831-19.716 8.52-21.887L8.493-22.073C8.443-22.415 8.709-22.721 9.054-22.721H10.729C11.008-22.721 11.246-22.518 11.289-22.242L11.311-22.107C11.651-20.024 13.632-12.838 14.701-10.059L14.778-9.858C14.914-9.505 14.673-9.12 14.296-9.089L12.221-8.916 12.007-9.378C10.309-13.044 9.619-13.505 5.873-13.505 5.008-13.505 4.2-13.505 3.546-13.496 3.175-13.491 2.911-13.137 3.01-12.779 4.286-8.154 6.082-1.894 6.672-.276 6.751-.059 6.836 .032 7.165 .032H11.208C13.176 .032 15.265-.044 15.829-.626 16.038-.84 16.117-1.213 16.096-1.91 16.032-3.925 15.729-5.767 15.603-6.466L15.568-6.659C15.505-7.007 15.773-7.327 16.126-7.327H17.85C18.101-7.327 18.322-7.162 18.394-6.921L18.429-6.801C18.467-6.663 18.529-6.452 18.605-6.178 19.067-4.542 20.145-.711 21.387 2.582 21.527 2.953 21.253 3.349 20.856 3.349 18.046 3.349 15.236 3.349 12.426 3.349 2.693 3.349-7.039 3.349-16.772 3.349-17.016 3.349-17.233 3.193-17.31 2.961" fill="currentColor"/>
<path transform="matrix(1,0,0,-1,82.3478,102.5108)" d="M0 0V-.003H.417C.288-.003 .147-.003 0 0" fill="currentColor"/>
</g>
</g>
</g>
</svg>
