<svg xmlns="http://www.w3.org/2000/svg" xmlns:xlink="http://www.w3.org/1999/xlink" xmlns:inkscape="http://www.inkscape.org/namespaces/inkscape" version="1.1" viewBox="0 0 185.661 184.089">
<defs>
<clipPath id="clip_1">
<path transform="matrix(1,0,0,-1,0,184.089)" d="M0 184.089H185.661V0H0Z"/>
</clipPath>
</defs>
<g>
<g inkscape:groupmode="layer" inkscape:label="Merch">
</g>
<g inkscape:groupmode="layer" inkscape:label="Working Layer">
<path transform="matrix(1,0,0,-1,92.8305,.00030517579)" d="M0 0-2.357-7.255H-9.986L-3.814-11.739-6.171-18.993 0-14.509 6.171-18.993 3.813-11.739 9.985-7.255H2.357Z" fill="currentColor"/>
<path transform="matrix(1,0,0,-1,173.3184,90.100208)" d="M0 0H-7.628L-1.457-4.484-3.814-11.738 2.357-7.255 8.528-11.738 6.171-4.484 12.343 0H4.714L2.357 7.255Z" fill="currentColor"/>
<path transform="matrix(1,0,0,-1,7.6275,91.102809)" d="M0 0H-7.628L-1.456-4.484-3.813-11.738 2.358-7.255 8.528-11.738 6.171-4.484 12.343 0H4.715L2.358 7.255Z" fill="currentColor"/>
<path transform="matrix(1,0,0,-1,19.9701,42.106706)" d="M0 0 2.357-7.255H9.985L3.814-11.738 6.171-18.993 0-14.509-6.171-18.993-3.814-11.738-9.985-7.255H-2.357Z" fill="currentColor"/>
<path transform="matrix(1,0,0,-1,135.1231,11.501907)" d="M0 0 2.357-7.255H9.985L3.814-11.738 6.171-18.993 0-14.509-6.171-18.993-3.814-11.738-9.985-7.255H-2.357Z" fill="currentColor"/>
<path transform="matrix(1,0,0,-1,165.6904,42.47711)" d="M0 0 2.357-7.255H9.985L3.814-11.738 6.171-18.993 0-14.509-6.171-18.993-3.814-11.738-9.985-7.255H-2.357Z" fill="currentColor"/>
<path transform="matrix(1,0,0,-1,165.6904,123.21431)" d="M0 0 2.357-7.255H9.985L3.814-11.738 6.171-18.993 0-14.509-6.171-18.993-3.814-11.738-9.985-7.255H-2.357Z" fill="currentColor"/>
<path transform="matrix(1,0,0,-1,19.9701,123.21431)" d="M0 0 2.357-7.255H9.985L3.814-11.738 6.171-18.993 0-14.509-6.171-18.993-3.814-11.738-9.985-7.255H-2.357Z" fill="currentColor"/>
<path transform="matrix(1,0,0,-1,50.5375,153.9697)" d="M0 0 2.357-7.255H9.985L3.814-11.738 6.171-18.993 0-14.509-6.171-18.993-3.814-11.738-9.985-7.255H-2.357Z" fill="currentColor"/>
<path transform="matrix(1,0,0,-1,135.1231,154.9723)" d="M0 0 2.357-7.255H9.985L3.814-11.738 6.171-18.993 0-14.509-6.171-18.993-3.814-11.738-9.985-7.255H-2.357Z" fill="currentColor"/>
<path transform="matrix(1,0,0,-1,50.5375,10.499405)" d="M0 0 2.357-7.255H9.985L3.814-11.738 6.171-18.993 0-14.509-6.171-18.993-3.814-11.738-9.985-7.255H-2.357Z" fill="currentColor"/>
<path transform="matrix(1,0,0,-1,91.6344,172.35121)" d="M0 0H-7.628L-1.457-4.483-3.814-11.738 2.357-7.254 8.527-11.738 6.17-4.483 12.342 0H4.714L2.357 7.255Z" fill="currentColor"/>
<g clip-path="url(#clip_1)">
<path transform="matrix(1,0,0,-1,91.4694,76.813709)" d="M0 0C-2.655 2.235-6.485 3.441-11.667 3.68-12.141 3.707-12.626 3.722-13.12 3.722-17.412 3.722-22.398 2.693-26.829 .882-27.784 1.807-28.201 3.009-27.95 4.188-27.006 9.34-18.005 12.122-10.018 12.122-2.165 12.122 5.61 11.313 13.104 9.721 9.829 8.215 5.441 4.963 0 0M-5.433-5.236C-16.09-15.844-26.887-22.433-33.61-22.433-35.406-22.433-37.822-22.109-39.128-20.575-40.002-19.543-40.288-18.04-39.972-16.098-39.398-12.468-35.656-8.338-29.434-4.462-24.987-1.649-17.709 1.329-12.072 1.329-11.975 1.329-11.879 1.329-11.786 1.325-7.29 1.175-4.084 .227-1.784-1.649-3.329-3.109-4.504-4.265-5.433-5.236M40.041 9.394C38.985 10.977 36.08 11.702 33.83 11.702 24.213 11.702 14.726 4.003 7.533-2.705 6.227-3.938 4.816-5.371 3.383-6.92 3.379-5.464 2.978-4.038 2.181-2.655 10.45 6.219 14.665 8.334 16.749 8.523 16.842 8.523 16.93 8.531 17.015 8.538 17.15 8.546 17.242 8.554 17.354 8.534L17.466 8.523C17.52 8.515 17.67 8.457 17.763 8.419 18.082 8.292 18.526 8.115 18.949 8.4L19.053 8.469 19.13 8.565C19.315 8.797 19.381 9.093 19.312 9.382 19.181 9.918 18.637 10.257 17.859 10.604 16.807 11.078 14.692 11.702 13.829 11.933L13.228 12.091C9.791 13.012 .663 15.455-10.018 15.455-19.069 15.455-28.829 12.137-30.227 4.728-30.547 2.959-30.104 1.221-29.033-.116-29.773-.482-30.582-.909-31.348-1.368-37.463-5.078-41.702-10.577-42.411-15.701-42.819-18.383-42.349-20.525-41.016-22.074-39.494-23.85-36.824-24.787-33.302-24.787-27.226-24.787-14.908-22.325-.678-5.853L-.651-5.818C-.347-5.425 .046-4.994 .466-4.535 .485-4.516 .505-4.496 .524-4.473 1.387-6.342 1.248-8.392 .112-10.708-2.312-13.609-4.188-16.275-4.92-17.844-5.209-18.445-5.807-19.936-5.167-20.845-4.882-21.246-4.408-21.45-3.899-21.392-2.89-21.323-2.25-20.398-1.279-18.999-1.083-18.718-.871-18.41-.64-18.086 1.537-15.112 4.624-11.081 9.217-6.292 19.25 4.219 27.584 9.552 33.984 9.552 35.606 9.552 37.105 8.982 38.103 7.984L38.203 7.899C38.326 7.81 38.438 7.722 38.531 7.645 38.804 7.429 39.039 7.24 39.382 7.24H39.567L39.737 7.321C40.049 7.479 40.264 7.748 40.349 8.084 40.453 8.5 40.334 8.985 40.041 9.394" fill="currentColor"/>
<path transform="matrix(1,0,0,-1,108.1033,111.776)" d="M0 0C-.582-.628-2.377-2.47-3.237-3.26-3.491-3.275-3.734-3.291-3.976-3.306-5.159-3.375-6.277-3.445-7.81-3.61L-8.091-3.653C-8.477-3.711-8.928-3.776-9.394-3.857-7.159-1.052-5.918 1.796-6.146 3.772-6.265 4.801-6.758 5.618-7.564 6.134-8.465 6.735-9.822 7.04-11.602 7.04-15.339 7.04-21.816 5.602-27.784 1.549-30.27-.185-32.489-2.239-34.25-4.427-34.889-3.456-35.209-2.031-35.175-.231-35.175 1.094-34.678 5.71-28.27 9.467-23.357 12.311-17.266 13.574-8.515 13.574-1.745 13.574 8.365 12.16 12.476 11.54 8.642 8.249 4.739 4.635 0 0M-35.367-18.387C-36.18-17.531-36.546-16.298-36.462-14.723-36.246-11.085-31.822-5.668-25.708-1.557-21.18 1.476-14.892 4.735-10.831 4.785-9.733 4.785-9.163 4.712-8.673 4.258-8.465 4.08-8.357 3.811-8.338 3.437-8.253 1.603-10.261-1.78-13.347-5.013-14.657-5.583-15.825-6.377-16.456-6.905-17-7.302-18.082-8.35-18.156-9.217-18.183-9.536-18.079-9.829-17.867-10.041-16.911-11.001-15.478-9.775-14.934-9.309-14.665-9.074-14.395-8.824-14.125-8.577-13.609-8.103-13.074-7.61-12.684-7.352-11.875-6.774-10.392-6.25-8.704-5.949-7.799-5.834-6.816-5.749-5.814-5.68-13.601-12.993-22.413-19.997-30.312-19.997-31.923-19.997-34.107-19.72-35.367-18.387M31.695 10.808 31.668 10.869C31.36 11.478 30.705 11.332 30.455 11.278 30.327 11.247 30.181 11.216 29.973 11.193 29.383 11.108 28.667 11.193 27.399 11.393 24.521 11.914 21.912 12.507 19.612 13.035 19.308 13.104 19.011 13.17 18.722 13.235 19.458 13.752 20.309 14.241 20.953 14.43L21.111 14.484C21.539 14.615 22.251 14.838 22.382 15.497L22.39 15.539C22.436 15.882 22.309 16.21 22.047 16.422 21.481 16.876 20.494 16.576 20.171 16.456 18.194 15.848 16.325 14.557 15.493 13.929 15.15 13.994 14.78 14.067 14.383 14.145 9.351 15.127-.019 16.961-8.465 16.961-19.5 16.961-24.872 15.008-29.954 11.856-35.078 8.727-37.475 3.429-37.529-.146-37.675-3.63-36.492-5.444-35.641-6.288-37.594-9.19-38.716-12.133-38.812-14.634-38.924-16.892-38.33-18.722-37.043-20.074-35.167-22.043-32.377-22.456-30.362-22.456-20.402-22.456-11.59-17.52 0-5.437 2.057-5.406 4.315-5.545 5.464-5.695L5.568-5.699C5.753-5.699 5.961-5.718 6.157-5.733 6.697-5.784 7.159-5.822 7.533-5.541L7.618-5.468C7.964-5.121 8.088-4.662 7.941-4.238 7.826-3.895 7.494-3.464 6.585-3.348 5.56-3.233 3.93-3.144 2.154-3.109 2.759-2.478 3.36-1.834 3.58-1.588L4.042-1.087C7.394 2.555 10.858 6.315 15.979 10.896 20.487 10.033 23.985 9.467 26.956 9.112 28.328 8.939 29.464 8.958 30.339 9.17 30.774 9.236 31.356 9.467 31.622 9.918 31.784 10.195 31.811 10.519 31.695 10.808" fill="currentColor"/>
</g>
</g>
</g>
</svg>
