<svg xmlns="http://www.w3.org/2000/svg" xmlns:xlink="http://www.w3.org/1999/xlink" xmlns:inkscape="http://www.inkscape.org/namespaces/inkscape" version="1.1" viewBox="0 0 429.812 55.4763">
<defs>
<clipPath id="clip_1">
<path transform="matrix(1,0,0,-1,0,55.4763)" d="M0 55.476H429.812V0H0Z"/>
</clipPath>
</defs>
<g>
<g inkscape:groupmode="layer" inkscape:label="Merch">
</g>
<g inkscape:groupmode="layer" inkscape:label="Working Layer">
<g clip-path="url(#clip_1)">
<path transform="matrix(1,0,0,-1,57.659,3.5254975)" d="M0 0C.484 0 .838-.457 .716-.926L-.103-4.089-.852-4.115C-4.94-4.264-5.116-4.702-5.757-6.335-7.187-9.904-8.408-14.397-10.844-23.344L-11.37-25.28C-13.684-33.545-15.526-40.237-16.47-44.872-16.666-45.756-16.578-45.959-16.545-46.006-16.174-46.492-13.192-46.626-11.916-46.68L-11.547-46.697C-11.046-46.719-10.711-47.222-10.885-47.693L-12.031-50.796H-12.74C-13.738-50.796-15.175-50.749-16.7-50.695-18.535-50.634-20.613-50.567-22.333-50.567-24.647-50.567-26.941-50.648-28.972-50.722-29.728-50.749-30.45-50.776-31.131-50.796L-31.507-50.807C-32.01-50.821-32.381-50.34-32.238-49.857L-31.313-46.734-30.612-46.687C-26.388-46.384-26.138-46.087-25.477-43.847-23.782-38.148-21.936-31.638-20.805-27.585-20.676-27.12-21.015-26.663-21.497-26.651-23.527-26.602-26.19-26.562-28.763-26.562-31.667-26.562-34.308-26.611-36.036-26.67-36.359-26.681-36.634-26.898-36.721-27.209-38.562-33.791-40.396-40.747-41.481-45.223-41.504-45.334-41.522-45.431-41.535-45.516-41.594-45.898-41.345-46.255-40.967-46.343-40.062-46.552-38.371-46.64-37.534-46.68L-37.201-46.699C-36.735-46.724-36.408-47.17-36.525-47.623L-37.345-50.796H-38.127C-39.699-50.796-41.508-50.735-43.255-50.675-44.928-50.621-46.507-50.567-47.809-50.567-49.462-50.567-51.061-50.627-52.613-50.688-54.009-50.742-55.325-50.796-56.553-50.796H-56.918C-57.413-50.796-57.768-50.32-57.628-49.846L-56.701-46.707-55.972-46.68C-51.533-46.525-51.142-45.945-50.697-44.65-49.3-40.642-47.681-34.968-45.805-28.404L-44.598-24.187C-44.031-22.19-43.498-20.362-43.019-18.682-41.265-12.596-40.104-8.568-39.504-5.755-39.349-4.992-39.43-4.783-39.47-4.729-39.861-4.223-42.688-4.089-43.754-4.035L-44.113-4.018C-44.607-3.996-44.941-3.504-44.779-3.037L-43.727 0H-43.005C-42.101 0-40.954-.047-39.632-.094-37.992-.162-36.137-.229-34.336-.229-33.216-.229-31.792-.182-30.281-.128-28.588-.061-26.84 0-25.282 0H-24.929C-24.445 0-24.091-.457-24.212-.925L-25.032-4.095-25.801-4.115C-29.788-4.19-29.991-4.743-30.517-6.227-31.849-9.956-33.555-15.908-35.014-21.191-35.143-21.659-34.794-22.118-34.308-22.124-32.692-22.143-30.531-22.143-28.297-22.143-25.234-22.143-22.084-22.143-19.781-22.095-19.457-22.088-19.176-21.868-19.088-21.556L-18.852-20.719C-17.395-15.565-15.404-8.501-14.737-5.296-14.635-4.723-14.703-4.588-14.71-4.574-14.824-4.426-15.458-4.163-18.407-4.115L-18.777-4.108C-19.276-4.098-19.623-3.608-19.465-3.134L-18.414 .02-17.671 0C-16.309-.034-14.959-.074-13.698-.115-11.842-.182-10.243-.229-9.022-.229-7.524-.229-5.534-.162-3.78-.094-2.35-.047-1.122 0-.353 0Z" fill="currentColor"/>
<path transform="matrix(1,0,0,-1,58.3927,49.3558)" d="M0 0C-1.363 0-1.471 2.307-1.471 3.016-1.471 9.331 1.828 18.074 6.2 23.357 8.191 25.793 10.134 26.933 12.306 26.933 14.101 26.933 15.086 25.698 15.086 23.452 15.086 20.868 11.598 12.131 9.729 9.02 6.322 3.205 2.867 0 0 0M23.879 6.87C23.515 7.216 22.919 7.106 22.702 6.653L22.541 6.315C21.276 3.672 19.585 1.593 18.25 .587 17.719 .186 16.963 .659 17.085 1.312 17.086 1.32 17.088 1.328 17.089 1.336 18.486 7.927 22.406 21.05 25.185 29.159L25.31 29.522C25.474 30.003 25.117 30.502 24.609 30.502H18.146C17.822 30.502 17.536 30.292 17.44 29.983L17.285 29.49C15.99 30.731 14.08 31.433 11.84 31.433 8.858 31.433 6.247 30.569 3.394 28.64-4.028 23.843-10.073 12.245-10.073 2.78-10.073-2.685-7.59-5.816-3.252-5.816 1.268-5.816 5.115-3.135 7.875-.371 8.335 .088 9.114-.227 9.129-.877 9.158-2.126 9.435-3.322 10.14-4.244 10.687-4.959 11.753-5.816 13.703-5.816 20.308-5.816 24.437 1.019 25.907 3.954L26.245 4.628Z" fill="currentColor"/>
<path transform="matrix(1,0,0,-1,141.5324,22.7266)" d="M0 0C-.094-2.314-.897-4.655-2.537-7.408-6.929-14.877-20.996-31.46-21.137-31.622L-21.421-31.959-21.859-31.979C-23.337-32.06-25.071-32.391-26.258-32.654L-26.609-32.732C-27.089-32.838-27.537-32.455-27.508-31.964L-27.486-31.608C-26.798-19.977-26.022-6.801-26.177-1.66-26.177-1.545-26.177-1.464-26.184-1.41-26.218-1.403-26.265-1.403-26.326-1.403L-28.654-1.452C-28.972-1.459-29.26-1.665-29.344-1.972-30.069-4.608-32.264-5.816-33.909-5.816-34.847-5.816-36.102-5.458-36.716-3.758L-36.743-3.69C-36.972-2.874-37.093-2.874-37.316-2.874-38.706-2.874-41.978-7.273-45.055-14.64-47.025-19.329-48.839-24.585-50.587-30.704L-50.783-31.392-51.498-31.44C-53.724-31.568-55.849-31.77-58.008-32.047L-58.445-32.105C-58.993-32.177-59.424-31.646-59.24-31.125L-59.094-30.711C-55.681-21.05-51.585-6.976-50.938-1.437-50.931-1.356-50.931-1.295-50.938-1.248H-55.508C-56.024-1.248-56.381-.735-56.203-.251L-55.067 2.82-54.412 2.867C-51.073 3.083-46.363 3.751-43.361 4.75L-42.951 4.887C-42.433 5.06-41.912 4.632-41.982 4.09L-42.039 3.657C-42.134 2.931-42.305 2.028-42.522 1.019-42.685 .259-41.713-.203-41.224 .401-38.752 3.456-36.352 4.804-33.68 4.804-31.737 4.804-30.448 3.839-29.753 2.544L-29.578 2.557C-24.909 2.935-21.124 3.549-18.324 4.372L-17.888 4.502C-17.349 4.662-16.835 4.187-16.953 3.637L-17.049 3.191C-17.845-.52-18.365-5.91-18.736-14.289-18.84-16.027-18.965-18.161-19.057-20.221-19.089-20.934-18.189-21.276-17.74-20.721-12.432-14.142-7.777-6.445-7.597-1.511-7.523-.081-7.658 .985-7.813 1.923L-7.941 2.685-7.239 3.009C-4.635 4.196-2.962 4.804-2.247 4.804-.675 4.804 0 1.619 0 0" fill="currentColor"/>
<path transform="matrix(1,0,0,-1,158.4059,22.267899)" d="M0 0C.533 0 2.159 0 2.159-3.252 2.159-5.897 .904-7.941-1.464-9.155-2.792-9.822-5.48-10.714-8.015-11.309-8.589-11.444-9.081-10.88-8.879-10.326-6.12-2.77-2.471 0 0 0M4.129-11.915C7.759-10.262 9.756-7.543 9.756-4.257 9.756 1.16 6.511 4.264 .85 4.264-2.739 4.264-6.22 3.016-9.23 .634-15.383-4.298-19.518-13.203-19.518-21.522-19.518-28.754-15.848-32.904-9.445-32.904-2.942-32.904 3.191-29.402 6.963-23.539L7.145-23.256 6.872-19.03C6.847-18.641 6.524-18.338 6.134-18.338H4.041L3.785-18.965C1.491-24.551-2.193-27.628-6.585-27.628-9.459-27.628-10.916-25.469-10.916-21.212-10.916-19.761-10.698-18.113-10.46-16.722-10.407-16.415-10.17-16.18-9.863-16.126-5.367-15.335 .73-13.65 4.129-11.915" fill="currentColor"/>
<path transform="matrix(1,0,0,-1,194.521,19.1846)" d="M0 0-.351-.837C-1.403-3.353-3.319-8.184-4.325-12.299L-4.514-13.075H-7.42C-7.886-13.075-8.236-12.65-8.146-12.193L-8.083-11.868C-7.401-8.379-7.671-5.768-8.858-4.331-9.58-3.454-10.68-3.009-12.124-3.009-14.991-3.009-16.3-5.337-16.3-7.496-16.3-9.068-15.841-10.086-14.6-11.247-13.628-12.171-11.915-13.608-10.403-14.877-9.526-15.612-8.697-16.313-8.049-16.874-5.984-18.702-4.608-20.672-4.608-24.369-4.702-28.579-6.875-31.278-8.683-32.809-11.166-34.86-14.667-35.987-18.547-35.987-22.278-35.987-26.542-34.732-29.409-32.796L-30.097-32.33-29.773-31.561C-29.065-29.888-27.938-26.4-26.332-20.908L-26.143-20.274-23.157-19.911C-22.642-19.849-22.224-20.322-22.35-20.825L-22.446-21.212C-22.743-22.419-23.114-24.612-23.188-26.049-23.222-27.79-22.77-29.173-21.839-30.124-20.847-31.129-19.323-31.642-17.312-31.642-15.032-31.642-12.353-30.502-12.286-27.29-12.286-25.759-12.711-24.835-13.979-23.634-15.369-22.318-17.757-20.092-19.7-18.304-22.392-16.091-23.661-13.554-23.661-10.356-23.661-6.828-22.278-3.805-19.66-1.606-17.413 .317-14.694 1.262-11.348 1.262-9.046 1.262-6.931 .54-5.481-.374-5.15-.583-4.718-.498-4.49-.18L-3.513 1.186C-3.295 1.491-2.883 1.584-2.555 1.404Z" fill="currentColor"/>
<path transform="matrix(1,0,0,-1,199.797,48.5868)" d="M0 0C-.263-1.133-.108-1.376-.101-1.39-.101-1.39 .014-1.464 .405-1.464 2.969-1.464 6.396 2.463 7.995 6.133L8.258 6.74C8.522 7.349 9.391 7.33 9.628 6.71L11.031 3.043 10.835 2.645C7.664-3.697 1.68-6.585-2.537-6.585-4.885-6.585-6.551-5.944-7.496-4.675-8.96-2.719-8.373 .182-7.61 2.766-6.841 5.35-5.944 8.325-5.033 11.335-3.69 15.799-2.307 20.395-1.301 23.824-1.171 24.267-1.473 24.718-1.932 24.767L-5.262 25.124C-5.762 25.178-6.064 25.704-5.858 26.162L-4.629 28.91C-4.509 29.177-4.245 29.348-3.953 29.348H-.176C.146 29.348 .433 29.559 .53 29.866 1.632 33.323 2.435 36.223 2.834 37.728L3.002 38.355 3.636 38.463C6.2 38.922 8.669 39.381 10.606 40.049L11.176 40.248C11.782 40.459 12.352 39.852 12.102 39.261L11.867 38.706C11.39 37.571 10.104 33.987 8.909 30.319 8.753 29.84 9.109 29.348 9.612 29.348H15.638C16.192 29.348 16.55 28.761 16.295 28.268L14.858 25.487C14.74 25.258 14.51 25.107 14.253 25.088L7.679 24.62C7.379 24.599 7.123 24.399 7.029 24.114 5.268 18.764 1.237 5.334 0 0" fill="currentColor"/>
<path transform="matrix(1,0,0,-1,266.1835,3.1764985)" d="M0 0C.547 .057 .962-.481 .769-.996L.615-1.408C-1.085-5.901-2.569-11.164-3.204-13.411-3.318-13.822-3.406-14.139-3.467-14.342L-3.683-15.07H-6.698C-7.161-15.07-7.511-14.65-7.426-14.195L-7.366-13.876C-7.198-12.918-6.779-10.401-6.685-7.595-6.665-6.637-6.766-6.124-7.056-5.834-7.832-5.038-10.706-4.93-13.418-4.93H-18.991C-19.436-4.93-19.551-5.038-19.666-5.348-20.483-7.581-22.969-16.243-24.725-22.624-24.853-23.091-24.508-23.552-24.023-23.559-23.114-23.571-21.981-23.571-20.772-23.571-15.611-23.571-14.666-22.937-12.325-17.89L-12.028-17.249-9.1-17.492C-8.608-17.533-8.293-18.035-8.47-18.495L-8.601-18.835C-10.078-22.674-12.804-32.571-13.27-35.432L-13.405-36.282H-16.44C-16.889-36.282-17.235-35.884-17.172-35.439L-17.129-35.128C-16.704-32.133-16.441-29.771-17.237-28.854-17.797-28.206-19.099-27.923-21.467-27.923-23.184-27.923-24.663-27.923-25.644-27.958-25.964-27.969-26.233-28.181-26.322-28.488-27.635-33.057-29.688-40.444-30.852-45.781-30.939-46.152-30.939-46.334-30.933-46.402-30.879-46.429-30.764-46.463-30.541-46.496-29.543-46.638-26.858-46.955-25.137-47.029L-24.791-47.046C-24.312-47.068-23.98-47.535-24.117-47.995L-25.049-51.145H-25.805C-27.202-51.145-29.091-51.084-30.919-51.03-32.768-50.97-34.677-50.916-36.101-50.916-37.976-50.916-40.182-50.983-42.125-51.05-43.724-51.098-45.107-51.145-46.086-51.145H-46.451C-46.946-51.145-47.301-50.669-47.161-50.195L-46.388-47.579C-46.303-47.292-46.053-47.084-45.754-47.053L-41.856-46.652C-41.127-46.537-40.742-46.382-40.371-45.43-38.853-41.288-36.957-34.642-34.765-26.944L-34.056-24.462C-31.25-14.726-29.597-8.749-28.888-5.038L-28.868-4.964C-28.868-4.95-28.861-4.943-28.861-4.93-28.882-4.93-28.909-4.923-28.936-4.923L-33.998-4.424C-34.481-4.376-34.788-3.884-34.62-3.43L-33.476-.349H-32.774C-31.452-.349-29.671-.396-27.789-.457-25.643-.518-23.424-.578-21.548-.578H-13.492C-8.176-.578-4.027-.41-.437-.045Z" fill="currentColor"/>
<path transform="matrix(1,0,0,-1,275.522,22.267899)" d="M0 0C.54 0 2.166 0 2.166-3.252 2.166-5.897 .911-7.941-1.457-9.155-2.785-9.822-5.473-10.714-8.008-11.309-8.582-11.444-9.074-10.88-8.872-10.326-6.114-2.77-2.465 0 0 0M4.136-11.915C7.765-10.262 9.763-7.543 9.763-4.257 9.763 1.16 6.517 4.264 .857 4.264-2.732 4.264-6.214 3.016-9.223 .634-15.376-4.304-19.511-13.203-19.511-21.522-19.511-28.754-15.841-32.904-9.445-32.904-2.935-32.904 3.198-29.402 6.969-23.539L7.151-23.256 6.879-19.03C6.854-18.641 6.531-18.338 6.141-18.338H4.048L3.792-18.965C1.498-24.551-2.186-27.628-6.578-27.628-9.452-27.628-10.909-25.469-10.909-21.212-10.909-19.761-10.691-18.113-10.453-16.722-10.4-16.415-10.163-16.18-9.856-16.126-5.36-15.335 .737-13.65 4.136-11.915" fill="currentColor"/>
<path transform="matrix(1,0,0,-1,311.6439,19.1846)" d="M0 0-.351-.837C-1.403-3.353-3.319-8.184-4.331-12.299L-4.52-13.075H-7.42C-7.886-13.075-8.236-12.65-8.146-12.193L-8.083-11.868C-7.401-8.379-7.671-5.768-8.858-4.331-9.58-3.454-10.68-3.009-12.124-3.009-14.991-3.009-16.3-5.337-16.3-7.496-16.3-9.068-15.841-10.086-14.607-11.247-13.628-12.171-11.915-13.608-10.403-14.877-9.526-15.612-8.697-16.313-8.056-16.874-5.984-18.702-4.608-20.672-4.608-24.369-4.702-28.579-6.875-31.278-8.683-32.809-11.166-34.86-14.667-35.987-18.547-35.987-22.278-35.987-26.542-34.732-29.409-32.796L-30.104-32.33-29.78-31.561C-29.072-29.895-27.945-26.407-26.332-20.908L-26.144-20.274-23.157-19.911C-22.642-19.849-22.224-20.322-22.35-20.825L-22.446-21.212C-22.75-22.419-23.121-24.612-23.188-26.049-23.222-27.79-22.77-29.173-21.839-30.124-20.847-31.129-19.329-31.642-17.312-31.642-15.038-31.642-12.353-30.502-12.286-27.29-12.286-25.759-12.711-24.835-13.979-23.634-15.389-22.305-17.805-20.044-19.7-18.304-22.392-16.091-23.667-13.554-23.667-10.356-23.667-6.828-22.284-3.805-19.667-1.606-17.413 .317-14.694 1.262-11.348 1.262-9.047 1.262-6.933 .541-5.482-.374-5.151-.583-4.718-.497-4.49-.178L-3.519 1.185C-3.301 1.49-2.889 1.585-2.56 1.404Z" fill="currentColor"/>
<path transform="matrix(1,0,0,-1,342.3041,42.589799)" d="M0 0C.236 .462 .862 .544 1.209 .159L3.336-2.205 3.013-2.826C-.158-8.932-4.982-12.582-9.887-12.582-11.554-12.582-12.788-12.062-13.551-11.023-14.718-9.445-14.677-6.894-13.409-2.759-12.687-.424-11.776 2.416-10.805 5.425-9.396 9.811-7.943 14.326-6.941 17.744-7.271 18.183-7.325 18.255-7.656 18.693-8.648 18.687-9.908 18.669-11 18.615L-12.219 18.56-17.662 18.586C-17.983 18.587-18.268 18.383-18.368 18.078-20.136 12.697-24.15-.682-25.384-5.997-25.647-7.13-25.499-7.373-25.492-7.387-25.486-7.387-25.371-7.461-24.979-7.461-22.416-7.461-18.988-3.534-17.389 .136L-17.126 .743C-16.863 1.352-15.993 1.333-15.756 .713L-14.353-2.954-14.549-3.352C-17.72-9.694-23.704-12.582-27.921-12.582-30.269-12.582-31.935-11.941-32.887-10.672-34.344-8.716-33.757-5.815-32.995-3.231-32.225-.64-31.321 2.349-30.411 5.358-29.068 9.816-27.69 14.4-26.685 17.827-26.555 18.27-26.858 18.721-27.317 18.77L-30.646 19.127C-31.146 19.181-31.448 19.706-31.243 20.165L-30.013 22.913C-29.894 23.18-29.629 23.351-29.337 23.351H-25.561C-25.239 23.351-24.952 23.563-24.854 23.87-23.759 27.327-22.956 30.227-22.551 31.731L-22.382 32.358-21.748 32.466C-19.184 32.925-16.722 33.384-14.785 34.052L-14.209 34.253C-13.604 34.464-13.035 33.859-13.283 33.268L-13.517 32.709C-13.994 31.574-15.287 27.989-16.477 24.321-16.633 23.843-16.277 23.351-15.773 23.351H-8.531C-3.734 23.796-.502 23.945 1.744 24.62L2.426 24.829 3.438 23.473 3.195 22.926C1.049 18.19-4.402 .696-6.116-6.017-6.224-6.429-6.257-6.705-6.271-6.881-4.787-6.537-1.919-3.75-.179-.35Z" fill="currentColor"/>
<path transform="matrix(1,0,0,-1,347.7523,8.241398)" d="M0 0C-.182-3.063-2.395-5.283-5.269-5.283-6.43-5.283-7.469-4.858-8.211-4.095-9.02-3.259-9.425-2.078-9.378-.675-9.189 2.705-6.551 4.716-4.109 4.716-2.834 4.716-1.774 4.304-1.046 3.522-.263 2.685 .101 1.471 0 0" fill="currentColor"/>
<path transform="matrix(1,0,0,-1,376.2436,22.7266)" d="M0 0C-.094-2.314-.904-4.655-2.543-7.408-6.929-14.877-21.002-31.46-21.144-31.622L-21.428-31.959-21.866-31.979C-23.344-32.06-25.071-32.391-26.265-32.654L-26.616-32.732C-27.096-32.838-27.544-32.455-27.514-31.964L-27.493-31.608C-26.805-19.984-26.022-6.821-26.177-1.66-26.177-1.545-26.184-1.464-26.184-1.41-26.224-1.403-26.272-1.403-26.326-1.403L-30.663-1.489C-31.188-1.5-31.557-.974-31.368-.484L-30.219 2.503-29.584 2.557C-24.916 2.935-21.131 3.549-18.331 4.372L-17.895 4.502C-17.356 4.662-16.842 4.187-16.96 3.637L-17.056 3.191C-17.852-.52-18.371-5.91-18.736-14.289-18.844-16.026-18.968-18.158-19.06-20.217-19.092-20.93-18.192-21.273-17.744-20.717-12.437-14.139-7.783-6.444-7.597-1.511-7.529-.081-7.664 .985-7.819 1.923L-7.948 2.685-7.239 3.009C-4.642 4.196-2.962 4.804-2.253 4.804-.681 4.804 0 1.619 0 0" fill="currentColor"/>
<path transform="matrix(1,0,0,-1,408.3917,44.241899)" d="M0 0C-.101-.351-.209-.702-.31-1.059-.472-1.66-.627-2.267-.762-2.881-.378-2.233-.067-1.646 .175-1.16L.513-.486Z" fill="currentColor"/>
<path transform="matrix(1,0,0,-1,397.7521,25.904299)" d="M0 0C0-2.584-3.495-11.321-5.364-14.431-8.764-20.247-12.225-23.452-15.092-23.452-16.455-23.452-16.556-21.144-16.556-20.436-16.556-14.121-13.264-5.377-8.892-.095-6.902 2.341-4.959 3.481-2.786 3.481-.992 3.481 0 2.247 0 0M8.787-16.581C8.422-16.236 7.827-16.346 7.61-16.799L7.448-17.137C6.187-19.783 4.495-21.863 3.157-22.869 2.627-23.266 1.875-22.8 1.991-22.147 1.993-22.137 1.995-22.126 1.997-22.116 3.394-15.524 7.313-2.409 10.093 5.708L10.217 6.071C10.381 6.551 10.024 7.05 9.517 7.05H3.053C2.73 7.05 2.444 6.84 2.347 6.531L2.193 6.038C.897 7.28-1.012 7.981-3.245 7.981-6.227 7.981-8.838 7.118-11.692 5.188-19.12 .391-25.165-11.206-25.165-20.672-25.165-26.137-22.676-29.267-18.344-29.267-13.819-29.267-9.976-26.587-7.217-23.823-6.758-23.364-5.978-23.679-5.963-24.329-5.934-25.578-5.658-26.773-4.952-27.695-4.406-28.41-3.34-29.267-1.39-29.267 4.073-29.267 7.844-24.593 9.818-21.318 9.858-21.251 9.886-21.179 9.903-21.102 10.032-20.528 10.178-19.959 10.329-19.397 10.389-19.187 10.451-18.979 10.512-18.772 10.591-18.505 10.513-18.217 10.311-18.026Z" fill="currentColor"/>
<path transform="matrix(1,0,0,-1,408.3917,44.241899)" d="M0 0C-.101-.351-.209-.702-.31-1.059-.472-1.66-.627-2.267-.762-2.881-.378-2.233-.067-1.646 .175-1.16L.513-.486Z" fill="currentColor"/>
<path transform="matrix(1,0,0,-1,415.4622,48.499)" d="M0 0C-.094-.418-.108-.681-.108-.837 1.235-.594 4.149 1.923 6.005 5.627L6.18 5.977C6.41 6.437 7.026 6.528 7.379 6.156L9.607 3.805 9.283 3.164C6.173-2.901 1.194-6.673-3.697-6.673-5.323-6.673-6.544-6.16-7.32-5.141-8.515-3.574-8.377-1.165-7.858 1.258-7.842 1.336-7.811 1.414-7.77 1.483-7.414 2.088-7.125 2.638-6.895 3.097L-6.558 3.771-7.071 4.257C-6.207 7.185-5.343 10.019-4.433 13.001-3.461 16.165-2.415 19.599-1.181 23.735 2.328 35.677 3.461 39.913 4.142 42.875 4.149 42.902 4.156 42.929 4.163 42.949L-.525 43.033C-1.029 43.042-1.376 43.539-1.212 44.014L-.162 47.052 .546 47.065C5.256 47.139 10.235 47.652 12.927 48.347L13.424 48.475C14.002 48.623 14.509 48.063 14.303 47.503L14.128 47.025C12.009 41.216 9.513 33.369 6.72 23.708 2.982 11.031 .823 3.677 0 0" fill="currentColor"/>
</g>
</g>
</g>
</svg>
